<svg width="1696" height="1145" viewBox="0 0 1696 1145" fill="none" xmlns="http://www.w3.org/2000/svg">
<path d="M0 0H1696V1145H0V0Z" fill="#363B37"/>
<path d="M1623.34 118.094C1622.76 109.375 1619.08 100.875 1612.19 94.25C1605.24 100.938 1601.4 109.438 1600.66 118.094C1604.82 120.219 1608.65 122.969 1612 126.312C1615.35 123 1619.18 120.25 1623.34 118.094ZM1612.16 104.219C1614.21 107.438 1615.64 111.031 1616.39 114.781C1614.86 115.719 1613.43 116.75 1612.03 117.844C1610.67 116.781 1609.2 115.75 1607.71 114.812C1608.52 111.062 1610.02 107.469 1612.16 104.219ZM1612 136.281C1609.34 132.375 1605.96 128.969 1602.06 126.281C1601.63 126 1601.18 125.781 1600.76 125.469C1601.18 125.75 1601.63 126 1602.02 126.25C1595.68 121.844 1587.92 119.25 1579.5 119.25C1579.5 135.875 1590.42 149.938 1605.6 155.156C1607.65 155.875 1609.79 156.406 1612 156.75C1614.21 156.375 1616.32 155.844 1618.4 155.156C1633.58 149.938 1644.5 135.875 1644.5 119.25C1630.92 119.25 1618.99 126.031 1612 136.281ZM1616.29 149.25C1614.86 149.719 1613.43 150.094 1611.97 150.406C1610.54 150.125 1609.14 149.75 1607.81 149.281C1597.11 145.594 1589.28 136.812 1586.84 126.312C1590.42 127.125 1593.83 128.531 1596.98 130.469L1596.92 130.5C1597.34 130.781 1597.77 131.062 1598.19 131.281L1598.42 131.406C1601.63 133.656 1604.4 136.438 1606.57 139.688L1612 147.688L1617.43 139.719C1619.67 136.438 1622.47 133.625 1625.65 131.406L1625.88 131.25C1626.17 131.094 1626.46 130.906 1626.76 130.719L1626.72 130.656C1629.91 128.625 1633.45 127.125 1637.16 126.281C1634.72 136.812 1626.92 145.594 1616.29 149.25ZM1602.22 126.375C1602.15 126.344 1602.09 126.281 1602.06 126.25C1602.06 126.25 1602.09 126.25 1602.09 126.281C1602.12 126.312 1602.15 126.344 1602.22 126.375Z" fill="#C18A32"/>
<path d="M109.342 112.094C108.757 103.375 105.085 94.875 98.195 88.25C91.24 94.9375 87.405 103.438 86.6575 112.094C90.8175 114.219 94.6525 116.969 98 120.312C101.347 117 105.182 114.25 109.342 112.094ZM98.1625 98.2188C100.21 101.438 101.64 105.031 102.388 108.781C100.86 109.719 99.43 110.75 98.0325 111.844C96.6675 110.781 95.205 109.75 93.71 108.812C94.5225 105.062 96.0175 101.469 98.1625 98.2188ZM98 130.281C95.335 126.375 91.955 122.969 88.055 120.281C87.6325 120 87.1775 119.781 86.755 119.469C87.1775 119.75 87.6325 120 88.0225 120.25C81.685 115.844 73.9175 113.25 65.5 113.25C65.5 129.875 76.42 143.938 91.5975 149.156C93.645 149.875 95.79 150.406 98 150.75C100.21 150.375 102.323 149.844 104.403 149.156C119.58 143.938 130.5 129.875 130.5 113.25C116.915 113.25 104.988 120.031 98 130.281ZM102.29 143.25C100.86 143.719 99.43 144.094 97.9675 144.406C96.5375 144.125 95.14 143.75 93.8075 143.281C83.115 139.594 75.2825 130.812 72.845 120.312C76.42 121.125 79.8325 122.531 82.985 124.469L82.92 124.5C83.3425 124.781 83.765 125.062 84.1875 125.281L84.415 125.406C87.6325 127.656 90.395 130.438 92.5725 133.688L98 141.688L103.427 133.719C105.67 130.438 108.465 127.625 111.65 125.406L111.878 125.25C112.17 125.094 112.463 124.906 112.755 124.719L112.723 124.656C115.908 122.625 119.45 121.125 123.155 120.281C120.717 130.812 112.918 139.594 102.29 143.25ZM88.2175 120.375C88.1525 120.344 88.0875 120.281 88.055 120.25C88.055 120.25 88.0875 120.25 88.0875 120.281C88.12 120.312 88.1525 120.344 88.2175 120.375Z" fill="#C18A32"/>
<path d="M866.343 112.094C865.758 103.375 862.085 94.875 855.195 88.25C848.24 94.9375 844.405 103.438 843.657 112.094C847.817 114.219 851.653 116.969 855 120.312C858.347 117 862.183 114.25 866.343 112.094ZM855.162 98.2188C857.21 101.438 858.64 105.031 859.388 108.781C857.86 109.719 856.43 110.75 855.032 111.844C853.667 110.781 852.205 109.75 850.71 108.812C851.523 105.062 853.017 101.469 855.162 98.2188ZM855 130.281C852.335 126.375 848.955 122.969 845.055 120.281C844.632 120 844.178 119.781 843.755 119.469C844.178 119.75 844.633 120 845.023 120.25C838.685 115.844 830.917 113.25 822.5 113.25C822.5 129.875 833.42 143.938 848.597 149.156C850.645 149.875 852.79 150.406 855 150.75C857.21 150.375 859.323 149.844 861.403 149.156C876.58 143.938 887.5 129.875 887.5 113.25C873.915 113.25 861.988 120.031 855 130.281ZM859.29 143.25C857.86 143.719 856.43 144.094 854.968 144.406C853.538 144.125 852.14 143.75 850.807 143.281C840.115 139.594 832.282 130.812 829.845 120.312C833.42 121.125 836.832 122.531 839.985 124.469L839.92 124.5C840.342 124.781 840.765 125.062 841.188 125.281L841.415 125.406C844.632 127.656 847.395 130.438 849.573 133.688L855 141.688L860.427 133.719C862.67 130.438 865.465 127.625 868.65 125.406L868.878 125.25C869.17 125.094 869.463 124.906 869.755 124.719L869.722 124.656C872.907 122.625 876.45 121.125 880.155 120.281C877.718 130.812 869.917 139.594 859.29 143.25ZM845.218 120.375C845.153 120.344 845.087 120.281 845.055 120.25C845.055 120.25 845.088 120.25 845.088 120.281C845.12 120.312 845.153 120.344 845.218 120.375Z" fill="#C18A32"/>
<path d="M488.342 112.094C487.757 103.375 484.085 94.875 477.195 88.25C470.24 94.9375 466.405 103.438 465.658 112.094C469.818 114.219 473.653 116.969 477 120.312C480.347 117 484.182 114.25 488.342 112.094ZM477.163 98.2188C479.21 101.438 480.64 105.031 481.388 108.781C479.86 109.719 478.43 110.75 477.033 111.844C475.668 110.781 474.205 109.75 472.71 108.812C473.522 105.062 475.018 101.469 477.163 98.2188ZM477 130.281C474.335 126.375 470.955 122.969 467.055 120.281C466.632 120 466.178 119.781 465.755 119.469C466.178 119.75 466.632 120 467.022 120.25C460.685 115.844 452.917 113.25 444.5 113.25C444.5 129.875 455.42 143.938 470.598 149.156C472.645 149.875 474.79 150.406 477 150.75C479.21 150.375 481.322 149.844 483.402 149.156C498.58 143.938 509.5 129.875 509.5 113.25C495.915 113.25 483.988 120.031 477 130.281ZM481.29 143.25C479.86 143.719 478.43 144.094 476.967 144.406C475.537 144.125 474.14 143.75 472.807 143.281C462.115 139.594 454.283 130.812 451.845 120.312C455.42 121.125 458.832 122.531 461.985 124.469L461.92 124.5C462.343 124.781 462.765 125.062 463.188 125.281L463.415 125.406C466.633 127.656 469.395 130.438 471.573 133.688L477 141.688L482.427 133.719C484.67 130.438 487.465 127.625 490.65 125.406L490.878 125.25C491.17 125.094 491.463 124.906 491.755 124.719L491.723 124.656C494.908 122.625 498.45 121.125 502.155 120.281C499.717 130.812 491.918 139.594 481.29 143.25ZM467.217 120.375C467.152 120.344 467.087 120.281 467.055 120.25C467.055 120.25 467.087 120.25 467.087 120.281C467.12 120.312 467.152 120.344 467.217 120.375Z" fill="#C18A32"/>
<path d="M1245.34 112.094C1244.76 103.375 1241.08 94.875 1234.19 88.25C1227.24 94.9375 1223.4 103.438 1222.66 112.094C1226.82 114.219 1230.65 116.969 1234 120.312C1237.35 117 1241.18 114.25 1245.34 112.094ZM1234.16 98.2188C1236.21 101.438 1237.64 105.031 1238.39 108.781C1236.86 109.719 1235.43 110.75 1234.03 111.844C1232.67 110.781 1231.2 109.75 1229.71 108.812C1230.52 105.062 1232.02 101.469 1234.16 98.2188ZM1234 130.281C1231.34 126.375 1227.96 122.969 1224.06 120.281C1223.63 120 1223.18 119.781 1222.76 119.469C1223.18 119.75 1223.63 120 1224.02 120.25C1217.68 115.844 1209.92 113.25 1201.5 113.25C1201.5 129.875 1212.42 143.938 1227.6 149.156C1229.65 149.875 1231.79 150.406 1234 150.75C1236.21 150.375 1238.32 149.844 1240.4 149.156C1255.58 143.938 1266.5 129.875 1266.5 113.25C1252.92 113.25 1240.99 120.031 1234 130.281ZM1238.29 143.25C1236.86 143.719 1235.43 144.094 1233.97 144.406C1232.54 144.125 1231.14 143.75 1229.81 143.281C1219.11 139.594 1211.28 130.812 1208.84 120.312C1212.42 121.125 1215.83 122.531 1218.98 124.469L1218.92 124.5C1219.34 124.781 1219.77 125.062 1220.19 125.281L1220.42 125.406C1223.63 127.656 1226.4 130.438 1228.57 133.688L1234 141.688L1239.43 133.719C1241.67 130.438 1244.47 127.625 1247.65 125.406L1247.88 125.25C1248.17 125.094 1248.46 124.906 1248.76 124.719L1248.72 124.656C1251.91 122.625 1255.45 121.125 1259.16 120.281C1256.72 130.812 1248.92 139.594 1238.29 143.25ZM1224.22 120.375C1224.15 120.344 1224.09 120.281 1224.06 120.25C1224.06 120.25 1224.09 120.25 1224.09 120.281C1224.12 120.312 1224.15 120.344 1224.22 120.375Z" fill="#C18A32"/>
<path d="M289.342 247.094C288.757 238.375 285.085 229.875 278.195 223.25C271.24 229.938 267.405 238.438 266.658 247.094C270.818 249.219 274.653 251.969 278 255.312C281.347 252 285.182 249.25 289.342 247.094ZM278.163 233.219C280.21 236.438 281.64 240.031 282.388 243.781C280.86 244.719 279.43 245.75 278.033 246.844C276.668 245.781 275.205 244.75 273.71 243.812C274.522 240.062 276.018 236.469 278.163 233.219ZM278 265.281C275.335 261.375 271.955 257.969 268.055 255.281C267.632 255 267.178 254.781 266.755 254.469C267.178 254.75 267.632 255 268.022 255.25C261.685 250.844 253.917 248.25 245.5 248.25C245.5 264.875 256.42 278.938 271.598 284.156C273.645 284.875 275.79 285.406 278 285.75C280.21 285.375 282.322 284.844 284.402 284.156C299.58 278.938 310.5 264.875 310.5 248.25C296.915 248.25 284.988 255.031 278 265.281ZM282.29 278.25C280.86 278.719 279.43 279.094 277.967 279.406C276.537 279.125 275.14 278.75 273.807 278.281C263.115 274.594 255.283 265.812 252.845 255.312C256.42 256.125 259.832 257.531 262.985 259.469L262.92 259.5C263.343 259.781 263.765 260.062 264.188 260.281L264.415 260.406C267.633 262.656 270.395 265.438 272.573 268.688L278 276.688L283.427 268.719C285.67 265.438 288.465 262.625 291.65 260.406L291.878 260.25C292.17 260.094 292.463 259.906 292.755 259.719L292.723 259.656C295.908 257.625 299.45 256.125 303.155 255.281C300.717 265.812 292.918 274.594 282.29 278.25ZM268.217 255.375C268.152 255.344 268.087 255.281 268.055 255.25C268.055 255.25 268.087 255.25 268.087 255.281C268.12 255.312 268.152 255.344 268.217 255.375Z" fill="#C18A32"/>
<path d="M1046.34 247.094C1045.76 238.375 1042.08 229.875 1035.19 223.25C1028.24 229.938 1024.4 238.438 1023.66 247.094C1027.82 249.219 1031.65 251.969 1035 255.312C1038.35 252 1042.18 249.25 1046.34 247.094ZM1035.16 233.219C1037.21 236.438 1038.64 240.031 1039.39 243.781C1037.86 244.719 1036.43 245.75 1035.03 246.844C1033.67 245.781 1032.2 244.75 1030.71 243.812C1031.52 240.062 1033.02 236.469 1035.16 233.219ZM1035 265.281C1032.34 261.375 1028.96 257.969 1025.06 255.281C1024.63 255 1024.18 254.781 1023.76 254.469C1024.18 254.75 1024.63 255 1025.02 255.25C1018.68 250.844 1010.92 248.25 1002.5 248.25C1002.5 264.875 1013.42 278.938 1028.6 284.156C1030.65 284.875 1032.79 285.406 1035 285.75C1037.21 285.375 1039.32 284.844 1041.4 284.156C1056.58 278.938 1067.5 264.875 1067.5 248.25C1053.92 248.25 1041.99 255.031 1035 265.281ZM1039.29 278.25C1037.86 278.719 1036.43 279.094 1034.97 279.406C1033.54 279.125 1032.14 278.75 1030.81 278.281C1020.11 274.594 1012.28 265.812 1009.84 255.312C1013.42 256.125 1016.83 257.531 1019.98 259.469L1019.92 259.5C1020.34 259.781 1020.77 260.062 1021.19 260.281L1021.41 260.406C1024.63 262.656 1027.4 265.438 1029.57 268.688L1035 276.688L1040.43 268.719C1042.67 265.438 1045.47 262.625 1048.65 260.406L1048.88 260.25C1049.17 260.094 1049.46 259.906 1049.76 259.719L1049.72 259.656C1052.91 257.625 1056.45 256.125 1060.16 255.281C1057.72 265.812 1049.92 274.594 1039.29 278.25ZM1025.22 255.375C1025.15 255.344 1025.09 255.281 1025.06 255.25C1025.06 255.25 1025.09 255.25 1025.09 255.281C1025.12 255.312 1025.15 255.344 1025.22 255.375Z" fill="#C18A32"/>
<path d="M668.343 247.094C667.758 238.375 664.085 229.875 657.195 223.25C650.24 229.938 646.405 238.438 645.657 247.094C649.817 249.219 653.653 251.969 657 255.312C660.347 252 664.183 249.25 668.343 247.094ZM657.162 233.219C659.21 236.438 660.64 240.031 661.388 243.781C659.86 244.719 658.43 245.75 657.032 246.844C655.667 245.781 654.205 244.75 652.71 243.812C653.523 240.062 655.017 236.469 657.162 233.219ZM657 265.281C654.335 261.375 650.955 257.969 647.055 255.281C646.632 255 646.178 254.781 645.755 254.469C646.178 254.75 646.633 255 647.023 255.25C640.685 250.844 632.917 248.25 624.5 248.25C624.5 264.875 635.42 278.938 650.597 284.156C652.645 284.875 654.79 285.406 657 285.75C659.21 285.375 661.323 284.844 663.403 284.156C678.58 278.938 689.5 264.875 689.5 248.25C675.915 248.25 663.988 255.031 657 265.281ZM661.29 278.25C659.86 278.719 658.43 279.094 656.968 279.406C655.538 279.125 654.14 278.75 652.807 278.281C642.115 274.594 634.282 265.812 631.845 255.312C635.42 256.125 638.832 257.531 641.985 259.469L641.92 259.5C642.342 259.781 642.765 260.062 643.188 260.281L643.415 260.406C646.632 262.656 649.395 265.438 651.573 268.688L657 276.688L662.427 268.719C664.67 265.438 667.465 262.625 670.65 260.406L670.878 260.25C671.17 260.094 671.463 259.906 671.755 259.719L671.722 259.656C674.907 257.625 678.45 256.125 682.155 255.281C679.718 265.812 671.917 274.594 661.29 278.25ZM647.218 255.375C647.153 255.344 647.087 255.281 647.055 255.25C647.055 255.25 647.088 255.25 647.088 255.281C647.12 255.312 647.153 255.344 647.218 255.375Z" fill="#C18A32"/>
<path d="M1425.34 247.094C1424.76 238.375 1421.08 229.875 1414.19 223.25C1407.24 229.938 1403.4 238.438 1402.66 247.094C1406.82 249.219 1410.65 251.969 1414 255.312C1417.35 252 1421.18 249.25 1425.34 247.094ZM1414.16 233.219C1416.21 236.438 1417.64 240.031 1418.39 243.781C1416.86 244.719 1415.43 245.75 1414.03 246.844C1412.67 245.781 1411.2 244.75 1409.71 243.812C1410.52 240.062 1412.02 236.469 1414.16 233.219ZM1414 265.281C1411.34 261.375 1407.96 257.969 1404.06 255.281C1403.63 255 1403.18 254.781 1402.76 254.469C1403.18 254.75 1403.63 255 1404.02 255.25C1397.68 250.844 1389.92 248.25 1381.5 248.25C1381.5 264.875 1392.42 278.938 1407.6 284.156C1409.65 284.875 1411.79 285.406 1414 285.75C1416.21 285.375 1418.32 284.844 1420.4 284.156C1435.58 278.938 1446.5 264.875 1446.5 248.25C1432.92 248.25 1420.99 255.031 1414 265.281ZM1418.29 278.25C1416.86 278.719 1415.43 279.094 1413.97 279.406C1412.54 279.125 1411.14 278.75 1409.81 278.281C1399.11 274.594 1391.28 265.812 1388.84 255.312C1392.42 256.125 1395.83 257.531 1398.98 259.469L1398.92 259.5C1399.34 259.781 1399.77 260.062 1400.19 260.281L1400.42 260.406C1403.63 262.656 1406.4 265.438 1408.57 268.688L1414 276.688L1419.43 268.719C1421.67 265.438 1424.47 262.625 1427.65 260.406L1427.88 260.25C1428.17 260.094 1428.46 259.906 1428.76 259.719L1428.72 259.656C1431.91 257.625 1435.45 256.125 1439.16 255.281C1436.72 265.812 1428.92 274.594 1418.29 278.25ZM1404.22 255.375C1404.15 255.344 1404.09 255.281 1404.06 255.25C1404.06 255.25 1404.09 255.25 1404.09 255.281C1404.12 255.312 1404.15 255.344 1404.22 255.375Z" fill="#C18A32"/>
<path d="M1630.34 388.094C1629.76 379.375 1626.08 370.875 1619.19 364.25C1612.24 370.938 1608.4 379.438 1607.66 388.094C1611.82 390.219 1615.65 392.969 1619 396.312C1622.35 393 1626.18 390.25 1630.34 388.094ZM1619.16 374.219C1621.21 377.438 1622.64 381.031 1623.39 384.781C1621.86 385.719 1620.43 386.75 1619.03 387.844C1617.67 386.781 1616.2 385.75 1614.71 384.812C1615.52 381.062 1617.02 377.469 1619.16 374.219ZM1619 406.281C1616.34 402.375 1612.96 398.969 1609.06 396.281C1608.63 396 1608.18 395.781 1607.76 395.469C1608.18 395.75 1608.63 396 1609.02 396.25C1602.68 391.844 1594.92 389.25 1586.5 389.25C1586.5 405.875 1597.42 419.938 1612.6 425.156C1614.65 425.875 1616.79 426.406 1619 426.75C1621.21 426.375 1623.32 425.844 1625.4 425.156C1640.58 419.938 1651.5 405.875 1651.5 389.25C1637.92 389.25 1625.99 396.031 1619 406.281ZM1623.29 419.25C1621.86 419.719 1620.43 420.094 1618.97 420.406C1617.54 420.125 1616.14 419.75 1614.81 419.281C1604.11 415.594 1596.28 406.812 1593.84 396.312C1597.42 397.125 1600.83 398.531 1603.98 400.469L1603.92 400.5C1604.34 400.781 1604.77 401.062 1605.19 401.281L1605.42 401.406C1608.63 403.656 1611.4 406.438 1613.57 409.688L1619 417.688L1624.43 409.719C1626.67 406.438 1629.47 403.625 1632.65 401.406L1632.88 401.25C1633.17 401.094 1633.46 400.906 1633.76 400.719L1633.72 400.656C1636.91 398.625 1640.45 397.125 1644.16 396.281C1641.72 406.812 1633.92 415.594 1623.29 419.25ZM1609.22 396.375C1609.15 396.344 1609.09 396.281 1609.06 396.25C1609.06 396.25 1609.09 396.25 1609.09 396.281C1609.12 396.312 1609.15 396.344 1609.22 396.375Z" fill="#C18A32"/>
<path d="M116.342 382.094C115.757 373.375 112.085 364.875 105.195 358.25C98.24 364.938 94.405 373.438 93.6575 382.094C97.8175 384.219 101.653 386.969 105 390.312C108.347 387 112.182 384.25 116.342 382.094ZM105.162 368.219C107.21 371.438 108.64 375.031 109.388 378.781C107.86 379.719 106.43 380.75 105.033 381.844C103.668 380.781 102.205 379.75 100.71 378.812C101.522 375.062 103.017 371.469 105.162 368.219ZM105 400.281C102.335 396.375 98.955 392.969 95.055 390.281C94.6325 390 94.1775 389.781 93.755 389.469C94.1775 389.75 94.6325 390 95.0225 390.25C88.685 385.844 80.9175 383.25 72.5 383.25C72.5 399.875 83.42 413.938 98.5975 419.156C100.645 419.875 102.79 420.406 105 420.75C107.21 420.375 109.323 419.844 111.403 419.156C126.58 413.938 137.5 399.875 137.5 383.25C123.915 383.25 111.988 390.031 105 400.281ZM109.29 413.25C107.86 413.719 106.43 414.094 104.967 414.406C103.537 414.125 102.14 413.75 100.808 413.281C90.115 409.594 82.2825 400.812 79.845 390.312C83.42 391.125 86.8325 392.531 89.985 394.469L89.92 394.5C90.3425 394.781 90.765 395.062 91.1875 395.281L91.415 395.406C94.6325 397.656 97.395 400.438 99.5725 403.688L105 411.688L110.427 403.719C112.67 400.438 115.465 397.625 118.65 395.406L118.878 395.25C119.17 395.094 119.463 394.906 119.755 394.719L119.723 394.656C122.908 392.625 126.45 391.125 130.155 390.281C127.717 400.812 119.918 409.594 109.29 413.25ZM95.2175 390.375C95.1525 390.344 95.0875 390.281 95.055 390.25C95.055 390.25 95.0875 390.25 95.0875 390.281C95.12 390.312 95.1525 390.344 95.2175 390.375Z" fill="#C18A32"/>
<path d="M873.343 382.094C872.758 373.375 869.085 364.875 862.195 358.25C855.24 364.938 851.405 373.438 850.657 382.094C854.817 384.219 858.653 386.969 862 390.312C865.347 387 869.183 384.25 873.343 382.094ZM862.162 368.219C864.21 371.438 865.64 375.031 866.388 378.781C864.86 379.719 863.43 380.75 862.032 381.844C860.667 380.781 859.205 379.75 857.71 378.812C858.523 375.062 860.017 371.469 862.162 368.219ZM862 400.281C859.335 396.375 855.955 392.969 852.055 390.281C851.632 390 851.178 389.781 850.755 389.469C851.178 389.75 851.633 390 852.023 390.25C845.685 385.844 837.917 383.25 829.5 383.25C829.5 399.875 840.42 413.938 855.597 419.156C857.645 419.875 859.79 420.406 862 420.75C864.21 420.375 866.323 419.844 868.403 419.156C883.58 413.938 894.5 399.875 894.5 383.25C880.915 383.25 868.988 390.031 862 400.281ZM866.29 413.25C864.86 413.719 863.43 414.094 861.968 414.406C860.538 414.125 859.14 413.75 857.807 413.281C847.115 409.594 839.282 400.812 836.845 390.312C840.42 391.125 843.832 392.531 846.985 394.469L846.92 394.5C847.342 394.781 847.765 395.062 848.188 395.281L848.415 395.406C851.632 397.656 854.395 400.438 856.573 403.688L862 411.688L867.427 403.719C869.67 400.438 872.465 397.625 875.65 395.406L875.878 395.25C876.17 395.094 876.463 394.906 876.755 394.719L876.722 394.656C879.907 392.625 883.45 391.125 887.155 390.281C884.718 400.812 876.917 409.594 866.29 413.25ZM852.218 390.375C852.153 390.344 852.087 390.281 852.055 390.25C852.055 390.25 852.088 390.25 852.088 390.281C852.12 390.312 852.153 390.344 852.218 390.375Z" fill="#C18A32"/>
<path d="M495.342 382.094C494.757 373.375 491.085 364.875 484.195 358.25C477.24 364.938 473.405 373.438 472.658 382.094C476.818 384.219 480.653 386.969 484 390.312C487.347 387 491.182 384.25 495.342 382.094ZM484.163 368.219C486.21 371.438 487.64 375.031 488.388 378.781C486.86 379.719 485.43 380.75 484.033 381.844C482.668 380.781 481.205 379.75 479.71 378.812C480.522 375.062 482.018 371.469 484.163 368.219ZM484 400.281C481.335 396.375 477.955 392.969 474.055 390.281C473.632 390 473.178 389.781 472.755 389.469C473.178 389.75 473.632 390 474.022 390.25C467.685 385.844 459.917 383.25 451.5 383.25C451.5 399.875 462.42 413.938 477.598 419.156C479.645 419.875 481.79 420.406 484 420.75C486.21 420.375 488.322 419.844 490.402 419.156C505.58 413.938 516.5 399.875 516.5 383.25C502.915 383.25 490.988 390.031 484 400.281ZM488.29 413.25C486.86 413.719 485.43 414.094 483.967 414.406C482.537 414.125 481.14 413.75 479.807 413.281C469.115 409.594 461.283 400.812 458.845 390.312C462.42 391.125 465.832 392.531 468.985 394.469L468.92 394.5C469.343 394.781 469.765 395.062 470.188 395.281L470.415 395.406C473.633 397.656 476.395 400.438 478.573 403.688L484 411.688L489.427 403.719C491.67 400.438 494.465 397.625 497.65 395.406L497.878 395.25C498.17 395.094 498.463 394.906 498.755 394.719L498.723 394.656C501.908 392.625 505.45 391.125 509.155 390.281C506.717 400.812 498.918 409.594 488.29 413.25ZM474.217 390.375C474.152 390.344 474.087 390.281 474.055 390.25C474.055 390.25 474.087 390.25 474.087 390.281C474.12 390.312 474.152 390.344 474.217 390.375Z" fill="#C18A32"/>
<path d="M1252.34 382.094C1251.76 373.375 1248.08 364.875 1241.19 358.25C1234.24 364.938 1230.4 373.438 1229.66 382.094C1233.82 384.219 1237.65 386.969 1241 390.312C1244.35 387 1248.18 384.25 1252.34 382.094ZM1241.16 368.219C1243.21 371.438 1244.64 375.031 1245.39 378.781C1243.86 379.719 1242.43 380.75 1241.03 381.844C1239.67 380.781 1238.2 379.75 1236.71 378.812C1237.52 375.062 1239.02 371.469 1241.16 368.219ZM1241 400.281C1238.34 396.375 1234.96 392.969 1231.06 390.281C1230.63 390 1230.18 389.781 1229.76 389.469C1230.18 389.75 1230.63 390 1231.02 390.25C1224.68 385.844 1216.92 383.25 1208.5 383.25C1208.5 399.875 1219.42 413.938 1234.6 419.156C1236.65 419.875 1238.79 420.406 1241 420.75C1243.21 420.375 1245.32 419.844 1247.4 419.156C1262.58 413.938 1273.5 399.875 1273.5 383.25C1259.92 383.25 1247.99 390.031 1241 400.281ZM1245.29 413.25C1243.86 413.719 1242.43 414.094 1240.97 414.406C1239.54 414.125 1238.14 413.75 1236.81 413.281C1226.11 409.594 1218.28 400.812 1215.84 390.312C1219.42 391.125 1222.83 392.531 1225.98 394.469L1225.92 394.5C1226.34 394.781 1226.77 395.062 1227.19 395.281L1227.42 395.406C1230.63 397.656 1233.4 400.438 1235.57 403.688L1241 411.688L1246.43 403.719C1248.67 400.438 1251.47 397.625 1254.65 395.406L1254.88 395.25C1255.17 395.094 1255.46 394.906 1255.76 394.719L1255.72 394.656C1258.91 392.625 1262.45 391.125 1266.16 390.281C1263.72 400.812 1255.92 409.594 1245.29 413.25ZM1231.22 390.375C1231.15 390.344 1231.09 390.281 1231.06 390.25C1231.06 390.25 1231.09 390.25 1231.09 390.281C1231.12 390.312 1231.15 390.344 1231.22 390.375Z" fill="#C18A32"/>
<path d="M296.342 517.094C295.757 508.375 292.085 499.875 285.195 493.25C278.24 499.938 274.405 508.438 273.658 517.094C277.818 519.219 281.653 521.969 285 525.312C288.347 522 292.182 519.25 296.342 517.094ZM285.163 503.219C287.21 506.438 288.64 510.031 289.388 513.781C287.86 514.719 286.43 515.75 285.033 516.844C283.668 515.781 282.205 514.75 280.71 513.812C281.522 510.062 283.018 506.469 285.163 503.219ZM285 535.281C282.335 531.375 278.955 527.969 275.055 525.281C274.632 525 274.178 524.781 273.755 524.469C274.178 524.75 274.632 525 275.022 525.25C268.685 520.844 260.917 518.25 252.5 518.25C252.5 534.875 263.42 548.938 278.598 554.156C280.645 554.875 282.79 555.406 285 555.75C287.21 555.375 289.322 554.844 291.402 554.156C306.58 548.938 317.5 534.875 317.5 518.25C303.915 518.25 291.988 525.031 285 535.281ZM289.29 548.25C287.86 548.719 286.43 549.094 284.967 549.406C283.537 549.125 282.14 548.75 280.807 548.281C270.115 544.594 262.283 535.812 259.845 525.312C263.42 526.125 266.832 527.531 269.985 529.469L269.92 529.5C270.343 529.781 270.765 530.062 271.188 530.281L271.415 530.406C274.633 532.656 277.395 535.438 279.573 538.688L285 546.688L290.427 538.719C292.67 535.438 295.465 532.625 298.65 530.406L298.878 530.25C299.17 530.094 299.463 529.906 299.755 529.719L299.723 529.656C302.908 527.625 306.45 526.125 310.155 525.281C307.717 535.812 299.918 544.594 289.29 548.25ZM275.217 525.375C275.152 525.344 275.087 525.281 275.055 525.25C275.055 525.25 275.087 525.25 275.087 525.281C275.12 525.312 275.152 525.344 275.217 525.375Z" fill="#C18A32"/>
<path d="M1053.34 517.094C1052.76 508.375 1049.08 499.875 1042.19 493.25C1035.24 499.938 1031.4 508.438 1030.66 517.094C1034.82 519.219 1038.65 521.969 1042 525.312C1045.35 522 1049.18 519.25 1053.34 517.094ZM1042.16 503.219C1044.21 506.438 1045.64 510.031 1046.39 513.781C1044.86 514.719 1043.43 515.75 1042.03 516.844C1040.67 515.781 1039.2 514.75 1037.71 513.812C1038.52 510.062 1040.02 506.469 1042.16 503.219ZM1042 535.281C1039.34 531.375 1035.96 527.969 1032.06 525.281C1031.63 525 1031.18 524.781 1030.76 524.469C1031.18 524.75 1031.63 525 1032.02 525.25C1025.68 520.844 1017.92 518.25 1009.5 518.25C1009.5 534.875 1020.42 548.938 1035.6 554.156C1037.65 554.875 1039.79 555.406 1042 555.75C1044.21 555.375 1046.32 554.844 1048.4 554.156C1063.58 548.938 1074.5 534.875 1074.5 518.25C1060.92 518.25 1048.99 525.031 1042 535.281ZM1046.29 548.25C1044.86 548.719 1043.43 549.094 1041.97 549.406C1040.54 549.125 1039.14 548.75 1037.81 548.281C1027.11 544.594 1019.28 535.812 1016.84 525.312C1020.42 526.125 1023.83 527.531 1026.98 529.469L1026.92 529.5C1027.34 529.781 1027.77 530.062 1028.19 530.281L1028.42 530.406C1031.63 532.656 1034.4 535.438 1036.57 538.688L1042 546.688L1047.43 538.719C1049.67 535.438 1052.47 532.625 1055.65 530.406L1055.88 530.25C1056.17 530.094 1056.46 529.906 1056.76 529.719L1056.72 529.656C1059.91 527.625 1063.45 526.125 1067.16 525.281C1064.72 535.812 1056.92 544.594 1046.29 548.25ZM1032.22 525.375C1032.15 525.344 1032.09 525.281 1032.06 525.25C1032.06 525.25 1032.09 525.25 1032.09 525.281C1032.12 525.312 1032.15 525.344 1032.22 525.375Z" fill="#C18A32"/>
<path d="M675.343 517.094C674.758 508.375 671.085 499.875 664.195 493.25C657.24 499.938 653.405 508.438 652.657 517.094C656.817 519.219 660.653 521.969 664 525.312C667.347 522 671.183 519.25 675.343 517.094ZM664.162 503.219C666.21 506.438 667.64 510.031 668.388 513.781C666.86 514.719 665.43 515.75 664.032 516.844C662.667 515.781 661.205 514.75 659.71 513.812C660.523 510.062 662.017 506.469 664.162 503.219ZM664 535.281C661.335 531.375 657.955 527.969 654.055 525.281C653.632 525 653.178 524.781 652.755 524.469C653.178 524.75 653.633 525 654.023 525.25C647.685 520.844 639.917 518.25 631.5 518.25C631.5 534.875 642.42 548.938 657.597 554.156C659.645 554.875 661.79 555.406 664 555.75C666.21 555.375 668.323 554.844 670.403 554.156C685.58 548.938 696.5 534.875 696.5 518.25C682.915 518.25 670.988 525.031 664 535.281ZM668.29 548.25C666.86 548.719 665.43 549.094 663.968 549.406C662.538 549.125 661.14 548.75 659.807 548.281C649.115 544.594 641.282 535.812 638.845 525.312C642.42 526.125 645.832 527.531 648.985 529.469L648.92 529.5C649.342 529.781 649.765 530.062 650.188 530.281L650.415 530.406C653.632 532.656 656.395 535.438 658.573 538.688L664 546.688L669.427 538.719C671.67 535.438 674.465 532.625 677.65 530.406L677.878 530.25C678.17 530.094 678.463 529.906 678.755 529.719L678.722 529.656C681.907 527.625 685.45 526.125 689.155 525.281C686.718 535.812 678.917 544.594 668.29 548.25ZM654.218 525.375C654.153 525.344 654.087 525.281 654.055 525.25C654.055 525.25 654.088 525.25 654.088 525.281C654.12 525.312 654.153 525.344 654.218 525.375Z" fill="#C18A32"/>
<path d="M1432.34 517.094C1431.76 508.375 1428.08 499.875 1421.19 493.25C1414.24 499.938 1410.4 508.438 1409.66 517.094C1413.82 519.219 1417.65 521.969 1421 525.312C1424.35 522 1428.18 519.25 1432.34 517.094ZM1421.16 503.219C1423.21 506.438 1424.64 510.031 1425.39 513.781C1423.86 514.719 1422.43 515.75 1421.03 516.844C1419.67 515.781 1418.2 514.75 1416.71 513.812C1417.52 510.062 1419.02 506.469 1421.16 503.219ZM1421 535.281C1418.34 531.375 1414.96 527.969 1411.06 525.281C1410.63 525 1410.18 524.781 1409.76 524.469C1410.18 524.75 1410.63 525 1411.02 525.25C1404.68 520.844 1396.92 518.25 1388.5 518.25C1388.5 534.875 1399.42 548.938 1414.6 554.156C1416.65 554.875 1418.79 555.406 1421 555.75C1423.21 555.375 1425.32 554.844 1427.4 554.156C1442.58 548.938 1453.5 534.875 1453.5 518.25C1439.92 518.25 1427.99 525.031 1421 535.281ZM1425.29 548.25C1423.86 548.719 1422.43 549.094 1420.97 549.406C1419.54 549.125 1418.14 548.75 1416.81 548.281C1406.11 544.594 1398.28 535.812 1395.84 525.312C1399.42 526.125 1402.83 527.531 1405.98 529.469L1405.92 529.5C1406.34 529.781 1406.77 530.062 1407.19 530.281L1407.42 530.406C1410.63 532.656 1413.4 535.438 1415.57 538.688L1421 546.688L1426.43 538.719C1428.67 535.438 1431.47 532.625 1434.65 530.406L1434.88 530.25C1435.17 530.094 1435.46 529.906 1435.76 529.719L1435.72 529.656C1438.91 527.625 1442.45 526.125 1446.16 525.281C1443.72 535.812 1435.92 544.594 1425.29 548.25ZM1411.22 525.375C1411.15 525.344 1411.09 525.281 1411.06 525.25C1411.06 525.25 1411.09 525.25 1411.09 525.281C1411.12 525.312 1411.15 525.344 1411.22 525.375Z" fill="#C18A32"/>
<path d="M1623.34 608.094C1622.76 599.375 1619.08 590.875 1612.19 584.25C1605.24 590.938 1601.4 599.438 1600.66 608.094C1604.82 610.219 1608.65 612.969 1612 616.312C1615.35 613 1619.18 610.25 1623.34 608.094ZM1612.16 594.219C1614.21 597.438 1615.64 601.031 1616.39 604.781C1614.86 605.719 1613.43 606.75 1612.03 607.844C1610.67 606.781 1609.2 605.75 1607.71 604.812C1608.52 601.062 1610.02 597.469 1612.16 594.219ZM1612 626.281C1609.34 622.375 1605.96 618.969 1602.06 616.281C1601.63 616 1601.18 615.781 1600.76 615.469C1601.18 615.75 1601.63 616 1602.02 616.25C1595.68 611.844 1587.92 609.25 1579.5 609.25C1579.5 625.875 1590.42 639.938 1605.6 645.156C1607.65 645.875 1609.79 646.406 1612 646.75C1614.21 646.375 1616.32 645.844 1618.4 645.156C1633.58 639.938 1644.5 625.875 1644.5 609.25C1630.92 609.25 1618.99 616.031 1612 626.281ZM1616.29 639.25C1614.86 639.719 1613.43 640.094 1611.97 640.406C1610.54 640.125 1609.14 639.75 1607.81 639.281C1597.11 635.594 1589.28 626.812 1586.84 616.312C1590.42 617.125 1593.83 618.531 1596.98 620.469L1596.92 620.5C1597.34 620.781 1597.77 621.062 1598.19 621.281L1598.42 621.406C1601.63 623.656 1604.4 626.438 1606.57 629.688L1612 637.688L1617.43 629.719C1619.67 626.438 1622.47 623.625 1625.65 621.406L1625.88 621.25C1626.17 621.094 1626.46 620.906 1626.76 620.719L1626.72 620.656C1629.91 618.625 1633.45 617.125 1637.16 616.281C1634.72 626.812 1626.92 635.594 1616.29 639.25ZM1602.22 616.375C1602.15 616.344 1602.09 616.281 1602.06 616.25C1602.06 616.25 1602.09 616.25 1602.09 616.281C1602.12 616.312 1602.15 616.344 1602.22 616.375Z" fill="#C18A32"/>
<path d="M109.342 602.094C108.757 593.375 105.085 584.875 98.195 578.25C91.24 584.938 87.405 593.438 86.6575 602.094C90.8175 604.219 94.6525 606.969 98 610.312C101.347 607 105.182 604.25 109.342 602.094ZM98.1625 588.219C100.21 591.438 101.64 595.031 102.388 598.781C100.86 599.719 99.43 600.75 98.0325 601.844C96.6675 600.781 95.205 599.75 93.71 598.812C94.5225 595.062 96.0175 591.469 98.1625 588.219ZM98 620.281C95.335 616.375 91.955 612.969 88.055 610.281C87.6325 610 87.1775 609.781 86.755 609.469C87.1775 609.75 87.6325 610 88.0225 610.25C81.685 605.844 73.9175 603.25 65.5 603.25C65.5 619.875 76.42 633.938 91.5975 639.156C93.645 639.875 95.79 640.406 98 640.75C100.21 640.375 102.323 639.844 104.403 639.156C119.58 633.938 130.5 619.875 130.5 603.25C116.915 603.25 104.988 610.031 98 620.281ZM102.29 633.25C100.86 633.719 99.43 634.094 97.9675 634.406C96.5375 634.125 95.14 633.75 93.8075 633.281C83.115 629.594 75.2825 620.812 72.845 610.312C76.42 611.125 79.8325 612.531 82.985 614.469L82.92 614.5C83.3425 614.781 83.765 615.062 84.1875 615.281L84.415 615.406C87.6325 617.656 90.395 620.438 92.5725 623.688L98 631.688L103.427 623.719C105.67 620.438 108.465 617.625 111.65 615.406L111.878 615.25C112.17 615.094 112.463 614.906 112.755 614.719L112.723 614.656C115.908 612.625 119.45 611.125 123.155 610.281C120.717 620.812 112.918 629.594 102.29 633.25ZM88.2175 610.375C88.1525 610.344 88.0875 610.281 88.055 610.25C88.055 610.25 88.0875 610.25 88.0875 610.281C88.12 610.312 88.1525 610.344 88.2175 610.375Z" fill="#C18A32"/>
<path d="M866.343 602.094C865.758 593.375 862.085 584.875 855.195 578.25C848.24 584.938 844.405 593.438 843.657 602.094C847.817 604.219 851.653 606.969 855 610.312C858.347 607 862.183 604.25 866.343 602.094ZM855.162 588.219C857.21 591.438 858.64 595.031 859.388 598.781C857.86 599.719 856.43 600.75 855.032 601.844C853.667 600.781 852.205 599.75 850.71 598.812C851.523 595.062 853.017 591.469 855.162 588.219ZM855 620.281C852.335 616.375 848.955 612.969 845.055 610.281C844.632 610 844.178 609.781 843.755 609.469C844.178 609.75 844.633 610 845.023 610.25C838.685 605.844 830.917 603.25 822.5 603.25C822.5 619.875 833.42 633.938 848.597 639.156C850.645 639.875 852.79 640.406 855 640.75C857.21 640.375 859.323 639.844 861.403 639.156C876.58 633.938 887.5 619.875 887.5 603.25C873.915 603.25 861.988 610.031 855 620.281ZM859.29 633.25C857.86 633.719 856.43 634.094 854.968 634.406C853.538 634.125 852.14 633.75 850.807 633.281C840.115 629.594 832.282 620.812 829.845 610.312C833.42 611.125 836.832 612.531 839.985 614.469L839.92 614.5C840.342 614.781 840.765 615.062 841.188 615.281L841.415 615.406C844.632 617.656 847.395 620.438 849.573 623.688L855 631.688L860.427 623.719C862.67 620.438 865.465 617.625 868.65 615.406L868.878 615.25C869.17 615.094 869.463 614.906 869.755 614.719L869.722 614.656C872.907 612.625 876.45 611.125 880.155 610.281C877.718 620.812 869.917 629.594 859.29 633.25ZM845.218 610.375C845.153 610.344 845.087 610.281 845.055 610.25C845.055 610.25 845.088 610.25 845.088 610.281C845.12 610.312 845.153 610.344 845.218 610.375Z" fill="#C18A32"/>
<path d="M488.342 602.094C487.757 593.375 484.085 584.875 477.195 578.25C470.24 584.938 466.405 593.438 465.658 602.094C469.818 604.219 473.653 606.969 477 610.312C480.347 607 484.182 604.25 488.342 602.094ZM477.163 588.219C479.21 591.438 480.64 595.031 481.388 598.781C479.86 599.719 478.43 600.75 477.033 601.844C475.668 600.781 474.205 599.75 472.71 598.812C473.522 595.062 475.018 591.469 477.163 588.219ZM477 620.281C474.335 616.375 470.955 612.969 467.055 610.281C466.632 610 466.178 609.781 465.755 609.469C466.178 609.75 466.632 610 467.022 610.25C460.685 605.844 452.917 603.25 444.5 603.25C444.5 619.875 455.42 633.938 470.598 639.156C472.645 639.875 474.79 640.406 477 640.75C479.21 640.375 481.322 639.844 483.402 639.156C498.58 633.938 509.5 619.875 509.5 603.25C495.915 603.25 483.988 610.031 477 620.281ZM481.29 633.25C479.86 633.719 478.43 634.094 476.967 634.406C475.537 634.125 474.14 633.75 472.807 633.281C462.115 629.594 454.283 620.812 451.845 610.312C455.42 611.125 458.832 612.531 461.985 614.469L461.92 614.5C462.343 614.781 462.765 615.062 463.188 615.281L463.415 615.406C466.633 617.656 469.395 620.438 471.573 623.688L477 631.688L482.427 623.719C484.67 620.438 487.465 617.625 490.65 615.406L490.878 615.25C491.17 615.094 491.463 614.906 491.755 614.719L491.723 614.656C494.908 612.625 498.45 611.125 502.155 610.281C499.717 620.812 491.918 629.594 481.29 633.25ZM467.217 610.375C467.152 610.344 467.087 610.281 467.055 610.25C467.055 610.25 467.087 610.25 467.087 610.281C467.12 610.312 467.152 610.344 467.217 610.375Z" fill="#C18A32"/>
<path d="M1245.34 602.094C1244.76 593.375 1241.08 584.875 1234.19 578.25C1227.24 584.938 1223.4 593.438 1222.66 602.094C1226.82 604.219 1230.65 606.969 1234 610.312C1237.35 607 1241.18 604.25 1245.34 602.094ZM1234.16 588.219C1236.21 591.438 1237.64 595.031 1238.39 598.781C1236.86 599.719 1235.43 600.75 1234.03 601.844C1232.67 600.781 1231.2 599.75 1229.71 598.812C1230.52 595.062 1232.02 591.469 1234.16 588.219ZM1234 620.281C1231.34 616.375 1227.96 612.969 1224.06 610.281C1223.63 610 1223.18 609.781 1222.76 609.469C1223.18 609.75 1223.63 610 1224.02 610.25C1217.68 605.844 1209.92 603.25 1201.5 603.25C1201.5 619.875 1212.42 633.938 1227.6 639.156C1229.65 639.875 1231.79 640.406 1234 640.75C1236.21 640.375 1238.32 639.844 1240.4 639.156C1255.58 633.938 1266.5 619.875 1266.5 603.25C1252.92 603.25 1240.99 610.031 1234 620.281ZM1238.29 633.25C1236.86 633.719 1235.43 634.094 1233.97 634.406C1232.54 634.125 1231.14 633.75 1229.81 633.281C1219.11 629.594 1211.28 620.812 1208.84 610.312C1212.42 611.125 1215.83 612.531 1218.98 614.469L1218.92 614.5C1219.34 614.781 1219.77 615.062 1220.19 615.281L1220.42 615.406C1223.63 617.656 1226.4 620.438 1228.57 623.688L1234 631.688L1239.43 623.719C1241.67 620.438 1244.47 617.625 1247.65 615.406L1247.88 615.25C1248.17 615.094 1248.46 614.906 1248.76 614.719L1248.72 614.656C1251.91 612.625 1255.45 611.125 1259.16 610.281C1256.72 620.812 1248.92 629.594 1238.29 633.25ZM1224.22 610.375C1224.15 610.344 1224.09 610.281 1224.06 610.25C1224.06 610.25 1224.09 610.25 1224.09 610.281C1224.12 610.312 1224.15 610.344 1224.22 610.375Z" fill="#C18A32"/>
<path d="M289.342 737.094C288.757 728.375 285.085 719.875 278.195 713.25C271.24 719.938 267.405 728.438 266.658 737.094C270.818 739.219 274.653 741.969 278 745.312C281.347 742 285.182 739.25 289.342 737.094ZM278.163 723.219C280.21 726.438 281.64 730.031 282.388 733.781C280.86 734.719 279.43 735.75 278.033 736.844C276.668 735.781 275.205 734.75 273.71 733.812C274.522 730.062 276.018 726.469 278.163 723.219ZM278 755.281C275.335 751.375 271.955 747.969 268.055 745.281C267.632 745 267.178 744.781 266.755 744.469C267.178 744.75 267.632 745 268.022 745.25C261.685 740.844 253.917 738.25 245.5 738.25C245.5 754.875 256.42 768.938 271.598 774.156C273.645 774.875 275.79 775.406 278 775.75C280.21 775.375 282.322 774.844 284.402 774.156C299.58 768.938 310.5 754.875 310.5 738.25C296.915 738.25 284.988 745.031 278 755.281ZM282.29 768.25C280.86 768.719 279.43 769.094 277.967 769.406C276.537 769.125 275.14 768.75 273.807 768.281C263.115 764.594 255.283 755.812 252.845 745.312C256.42 746.125 259.832 747.531 262.985 749.469L262.92 749.5C263.343 749.781 263.765 750.062 264.188 750.281L264.415 750.406C267.633 752.656 270.395 755.438 272.573 758.688L278 766.688L283.427 758.719C285.67 755.438 288.465 752.625 291.65 750.406L291.878 750.25C292.17 750.094 292.463 749.906 292.755 749.719L292.723 749.656C295.908 747.625 299.45 746.125 303.155 745.281C300.717 755.812 292.918 764.594 282.29 768.25ZM268.217 745.375C268.152 745.344 268.087 745.281 268.055 745.25C268.055 745.25 268.087 745.25 268.087 745.281C268.12 745.312 268.152 745.344 268.217 745.375Z" fill="#C18A32"/>
<path d="M1046.34 737.094C1045.76 728.375 1042.08 719.875 1035.19 713.25C1028.24 719.938 1024.4 728.438 1023.66 737.094C1027.82 739.219 1031.65 741.969 1035 745.312C1038.35 742 1042.18 739.25 1046.34 737.094ZM1035.16 723.219C1037.21 726.438 1038.64 730.031 1039.39 733.781C1037.86 734.719 1036.43 735.75 1035.03 736.844C1033.67 735.781 1032.2 734.75 1030.71 733.812C1031.52 730.062 1033.02 726.469 1035.16 723.219ZM1035 755.281C1032.34 751.375 1028.96 747.969 1025.06 745.281C1024.63 745 1024.18 744.781 1023.76 744.469C1024.18 744.75 1024.63 745 1025.02 745.25C1018.68 740.844 1010.92 738.25 1002.5 738.25C1002.5 754.875 1013.42 768.938 1028.6 774.156C1030.65 774.875 1032.79 775.406 1035 775.75C1037.21 775.375 1039.32 774.844 1041.4 774.156C1056.58 768.938 1067.5 754.875 1067.5 738.25C1053.92 738.25 1041.99 745.031 1035 755.281ZM1039.29 768.25C1037.86 768.719 1036.43 769.094 1034.97 769.406C1033.54 769.125 1032.14 768.75 1030.81 768.281C1020.11 764.594 1012.28 755.812 1009.84 745.312C1013.42 746.125 1016.83 747.531 1019.98 749.469L1019.92 749.5C1020.34 749.781 1020.77 750.062 1021.19 750.281L1021.41 750.406C1024.63 752.656 1027.4 755.438 1029.57 758.688L1035 766.688L1040.43 758.719C1042.67 755.438 1045.47 752.625 1048.65 750.406L1048.88 750.25C1049.17 750.094 1049.46 749.906 1049.76 749.719L1049.72 749.656C1052.91 747.625 1056.45 746.125 1060.16 745.281C1057.72 755.812 1049.92 764.594 1039.29 768.25ZM1025.22 745.375C1025.15 745.344 1025.09 745.281 1025.06 745.25C1025.06 745.25 1025.09 745.25 1025.09 745.281C1025.12 745.312 1025.15 745.344 1025.22 745.375Z" fill="#C18A32"/>
<path d="M668.343 737.094C667.758 728.375 664.085 719.875 657.195 713.25C650.24 719.938 646.405 728.438 645.657 737.094C649.817 739.219 653.653 741.969 657 745.312C660.347 742 664.183 739.25 668.343 737.094ZM657.162 723.219C659.21 726.438 660.64 730.031 661.388 733.781C659.86 734.719 658.43 735.75 657.032 736.844C655.667 735.781 654.205 734.75 652.71 733.812C653.523 730.062 655.017 726.469 657.162 723.219ZM657 755.281C654.335 751.375 650.955 747.969 647.055 745.281C646.632 745 646.178 744.781 645.755 744.469C646.178 744.75 646.633 745 647.023 745.25C640.685 740.844 632.917 738.25 624.5 738.25C624.5 754.875 635.42 768.938 650.597 774.156C652.645 774.875 654.79 775.406 657 775.75C659.21 775.375 661.323 774.844 663.403 774.156C678.58 768.938 689.5 754.875 689.5 738.25C675.915 738.25 663.988 745.031 657 755.281ZM661.29 768.25C659.86 768.719 658.43 769.094 656.968 769.406C655.538 769.125 654.14 768.75 652.807 768.281C642.115 764.594 634.282 755.812 631.845 745.312C635.42 746.125 638.832 747.531 641.985 749.469L641.92 749.5C642.342 749.781 642.765 750.062 643.188 750.281L643.415 750.406C646.632 752.656 649.395 755.438 651.573 758.688L657 766.688L662.427 758.719C664.67 755.438 667.465 752.625 670.65 750.406L670.878 750.25C671.17 750.094 671.463 749.906 671.755 749.719L671.722 749.656C674.907 747.625 678.45 746.125 682.155 745.281C679.718 755.812 671.917 764.594 661.29 768.25ZM647.218 745.375C647.153 745.344 647.087 745.281 647.055 745.25C647.055 745.25 647.088 745.25 647.088 745.281C647.12 745.312 647.153 745.344 647.218 745.375Z" fill="#C18A32"/>
<path d="M1425.34 737.094C1424.76 728.375 1421.08 719.875 1414.19 713.25C1407.24 719.938 1403.4 728.438 1402.66 737.094C1406.82 739.219 1410.65 741.969 1414 745.312C1417.35 742 1421.18 739.25 1425.34 737.094ZM1414.16 723.219C1416.21 726.438 1417.64 730.031 1418.39 733.781C1416.86 734.719 1415.43 735.75 1414.03 736.844C1412.67 735.781 1411.2 734.75 1409.71 733.812C1410.52 730.062 1412.02 726.469 1414.16 723.219ZM1414 755.281C1411.34 751.375 1407.96 747.969 1404.06 745.281C1403.63 745 1403.18 744.781 1402.76 744.469C1403.18 744.75 1403.63 745 1404.02 745.25C1397.68 740.844 1389.92 738.25 1381.5 738.25C1381.5 754.875 1392.42 768.938 1407.6 774.156C1409.65 774.875 1411.79 775.406 1414 775.75C1416.21 775.375 1418.32 774.844 1420.4 774.156C1435.58 768.938 1446.5 754.875 1446.5 738.25C1432.92 738.25 1420.99 745.031 1414 755.281ZM1418.29 768.25C1416.86 768.719 1415.43 769.094 1413.97 769.406C1412.54 769.125 1411.14 768.75 1409.81 768.281C1399.11 764.594 1391.28 755.812 1388.84 745.312C1392.42 746.125 1395.83 747.531 1398.98 749.469L1398.92 749.5C1399.34 749.781 1399.77 750.062 1400.19 750.281L1400.42 750.406C1403.63 752.656 1406.4 755.438 1408.57 758.688L1414 766.688L1419.43 758.719C1421.67 755.438 1424.47 752.625 1427.65 750.406L1427.88 750.25C1428.17 750.094 1428.46 749.906 1428.76 749.719L1428.72 749.656C1431.91 747.625 1435.45 746.125 1439.16 745.281C1436.72 755.812 1428.92 764.594 1418.29 768.25ZM1404.22 745.375C1404.15 745.344 1404.09 745.281 1404.06 745.25C1404.06 745.25 1404.09 745.25 1404.09 745.281C1404.12 745.312 1404.15 745.344 1404.22 745.375Z" fill="#C18A32"/>
<path d="M1630.34 878.094C1629.76 869.375 1626.08 860.875 1619.19 854.25C1612.24 860.938 1608.4 869.438 1607.66 878.094C1611.82 880.219 1615.65 882.969 1619 886.312C1622.35 883 1626.18 880.25 1630.34 878.094ZM1619.16 864.219C1621.21 867.438 1622.64 871.031 1623.39 874.781C1621.86 875.719 1620.43 876.75 1619.03 877.844C1617.67 876.781 1616.2 875.75 1614.71 874.812C1615.52 871.062 1617.02 867.469 1619.16 864.219ZM1619 896.281C1616.34 892.375 1612.96 888.969 1609.06 886.281C1608.63 886 1608.18 885.781 1607.76 885.469C1608.18 885.75 1608.63 886 1609.02 886.25C1602.68 881.844 1594.92 879.25 1586.5 879.25C1586.5 895.875 1597.42 909.938 1612.6 915.156C1614.65 915.875 1616.79 916.406 1619 916.75C1621.21 916.375 1623.32 915.844 1625.4 915.156C1640.58 909.938 1651.5 895.875 1651.5 879.25C1637.92 879.25 1625.99 886.031 1619 896.281ZM1623.29 909.25C1621.86 909.719 1620.43 910.094 1618.97 910.406C1617.54 910.125 1616.14 909.75 1614.81 909.281C1604.11 905.594 1596.28 896.812 1593.84 886.312C1597.42 887.125 1600.83 888.531 1603.98 890.469L1603.92 890.5C1604.34 890.781 1604.77 891.062 1605.19 891.281L1605.42 891.406C1608.63 893.656 1611.4 896.438 1613.57 899.688L1619 907.688L1624.43 899.719C1626.67 896.438 1629.47 893.625 1632.65 891.406L1632.88 891.25C1633.17 891.094 1633.46 890.906 1633.76 890.719L1633.72 890.656C1636.91 888.625 1640.45 887.125 1644.16 886.281C1641.72 896.812 1633.92 905.594 1623.29 909.25ZM1609.22 886.375C1609.15 886.344 1609.09 886.281 1609.06 886.25C1609.06 886.25 1609.09 886.25 1609.09 886.281C1609.12 886.312 1609.15 886.344 1609.22 886.375Z" fill="#C18A32"/>
<path d="M116.342 872.094C115.757 863.375 112.085 854.875 105.195 848.25C98.24 854.938 94.405 863.438 93.6575 872.094C97.8175 874.219 101.653 876.969 105 880.312C108.347 877 112.182 874.25 116.342 872.094ZM105.162 858.219C107.21 861.438 108.64 865.031 109.388 868.781C107.86 869.719 106.43 870.75 105.033 871.844C103.668 870.781 102.205 869.75 100.71 868.812C101.522 865.062 103.017 861.469 105.162 858.219ZM105 890.281C102.335 886.375 98.955 882.969 95.055 880.281C94.6325 880 94.1775 879.781 93.755 879.469C94.1775 879.75 94.6325 880 95.0225 880.25C88.685 875.844 80.9175 873.25 72.5 873.25C72.5 889.875 83.42 903.938 98.5975 909.156C100.645 909.875 102.79 910.406 105 910.75C107.21 910.375 109.323 909.844 111.403 909.156C126.58 903.938 137.5 889.875 137.5 873.25C123.915 873.25 111.988 880.031 105 890.281ZM109.29 903.25C107.86 903.719 106.43 904.094 104.967 904.406C103.537 904.125 102.14 903.75 100.808 903.281C90.115 899.594 82.2825 890.812 79.845 880.312C83.42 881.125 86.8325 882.531 89.985 884.469L89.92 884.5C90.3425 884.781 90.765 885.062 91.1875 885.281L91.415 885.406C94.6325 887.656 97.395 890.438 99.5725 893.688L105 901.688L110.427 893.719C112.67 890.438 115.465 887.625 118.65 885.406L118.878 885.25C119.17 885.094 119.463 884.906 119.755 884.719L119.723 884.656C122.908 882.625 126.45 881.125 130.155 880.281C127.717 890.812 119.918 899.594 109.29 903.25ZM95.2175 880.375C95.1525 880.344 95.0875 880.281 95.055 880.25C95.055 880.25 95.0875 880.25 95.0875 880.281C95.12 880.312 95.1525 880.344 95.2175 880.375Z" fill="#C18A32"/>
<path d="M873.343 872.094C872.758 863.375 869.085 854.875 862.195 848.25C855.24 854.938 851.405 863.438 850.657 872.094C854.817 874.219 858.653 876.969 862 880.312C865.347 877 869.183 874.25 873.343 872.094ZM862.162 858.219C864.21 861.438 865.64 865.031 866.388 868.781C864.86 869.719 863.43 870.75 862.032 871.844C860.667 870.781 859.205 869.75 857.71 868.812C858.523 865.062 860.017 861.469 862.162 858.219ZM862 890.281C859.335 886.375 855.955 882.969 852.055 880.281C851.632 880 851.178 879.781 850.755 879.469C851.178 879.75 851.633 880 852.023 880.25C845.685 875.844 837.917 873.25 829.5 873.25C829.5 889.875 840.42 903.938 855.597 909.156C857.645 909.875 859.79 910.406 862 910.75C864.21 910.375 866.323 909.844 868.403 909.156C883.58 903.938 894.5 889.875 894.5 873.25C880.915 873.25 868.988 880.031 862 890.281ZM866.29 903.25C864.86 903.719 863.43 904.094 861.968 904.406C860.538 904.125 859.14 903.75 857.807 903.281C847.115 899.594 839.282 890.812 836.845 880.312C840.42 881.125 843.832 882.531 846.985 884.469L846.92 884.5C847.342 884.781 847.765 885.062 848.188 885.281L848.415 885.406C851.632 887.656 854.395 890.438 856.573 893.688L862 901.688L867.427 893.719C869.67 890.438 872.465 887.625 875.65 885.406L875.878 885.25C876.17 885.094 876.463 884.906 876.755 884.719L876.722 884.656C879.907 882.625 883.45 881.125 887.155 880.281C884.718 890.812 876.917 899.594 866.29 903.25ZM852.218 880.375C852.153 880.344 852.087 880.281 852.055 880.25C852.055 880.25 852.088 880.25 852.088 880.281C852.12 880.312 852.153 880.344 852.218 880.375Z" fill="#C18A32"/>
<path d="M495.342 872.094C494.757 863.375 491.085 854.875 484.195 848.25C477.24 854.938 473.405 863.438 472.658 872.094C476.818 874.219 480.653 876.969 484 880.312C487.347 877 491.182 874.25 495.342 872.094ZM484.163 858.219C486.21 861.438 487.64 865.031 488.388 868.781C486.86 869.719 485.43 870.75 484.033 871.844C482.668 870.781 481.205 869.75 479.71 868.812C480.522 865.062 482.018 861.469 484.163 858.219ZM484 890.281C481.335 886.375 477.955 882.969 474.055 880.281C473.632 880 473.178 879.781 472.755 879.469C473.178 879.75 473.632 880 474.022 880.25C467.685 875.844 459.917 873.25 451.5 873.25C451.5 889.875 462.42 903.938 477.598 909.156C479.645 909.875 481.79 910.406 484 910.75C486.21 910.375 488.322 909.844 490.402 909.156C505.58 903.938 516.5 889.875 516.5 873.25C502.915 873.25 490.988 880.031 484 890.281ZM488.29 903.25C486.86 903.719 485.43 904.094 483.967 904.406C482.537 904.125 481.14 903.75 479.807 903.281C469.115 899.594 461.283 890.812 458.845 880.312C462.42 881.125 465.832 882.531 468.985 884.469L468.92 884.5C469.343 884.781 469.765 885.062 470.188 885.281L470.415 885.406C473.633 887.656 476.395 890.438 478.573 893.688L484 901.688L489.427 893.719C491.67 890.438 494.465 887.625 497.65 885.406L497.878 885.25C498.17 885.094 498.463 884.906 498.755 884.719L498.723 884.656C501.908 882.625 505.45 881.125 509.155 880.281C506.717 890.812 498.918 899.594 488.29 903.25ZM474.217 880.375C474.152 880.344 474.087 880.281 474.055 880.25C474.055 880.25 474.087 880.25 474.087 880.281C474.12 880.312 474.152 880.344 474.217 880.375Z" fill="#C18A32"/>
<path d="M1252.34 872.094C1251.76 863.375 1248.08 854.875 1241.19 848.25C1234.24 854.938 1230.4 863.438 1229.66 872.094C1233.82 874.219 1237.65 876.969 1241 880.312C1244.35 877 1248.18 874.25 1252.34 872.094ZM1241.16 858.219C1243.21 861.438 1244.64 865.031 1245.39 868.781C1243.86 869.719 1242.43 870.75 1241.03 871.844C1239.67 870.781 1238.2 869.75 1236.71 868.812C1237.52 865.062 1239.02 861.469 1241.16 858.219ZM1241 890.281C1238.34 886.375 1234.96 882.969 1231.06 880.281C1230.63 880 1230.18 879.781 1229.76 879.469C1230.18 879.75 1230.63 880 1231.02 880.25C1224.68 875.844 1216.92 873.25 1208.5 873.25C1208.5 889.875 1219.42 903.938 1234.6 909.156C1236.65 909.875 1238.79 910.406 1241 910.75C1243.21 910.375 1245.32 909.844 1247.4 909.156C1262.58 903.938 1273.5 889.875 1273.5 873.25C1259.92 873.25 1247.99 880.031 1241 890.281ZM1245.29 903.25C1243.86 903.719 1242.43 904.094 1240.97 904.406C1239.54 904.125 1238.14 903.75 1236.81 903.281C1226.11 899.594 1218.28 890.812 1215.84 880.312C1219.42 881.125 1222.83 882.531 1225.98 884.469L1225.92 884.5C1226.34 884.781 1226.77 885.062 1227.19 885.281L1227.42 885.406C1230.63 887.656 1233.4 890.438 1235.57 893.688L1241 901.688L1246.43 893.719C1248.67 890.438 1251.47 887.625 1254.65 885.406L1254.88 885.25C1255.17 885.094 1255.46 884.906 1255.76 884.719L1255.72 884.656C1258.91 882.625 1262.45 881.125 1266.16 880.281C1263.72 890.812 1255.92 899.594 1245.29 903.25ZM1231.22 880.375C1231.15 880.344 1231.09 880.281 1231.06 880.25C1231.06 880.25 1231.09 880.25 1231.09 880.281C1231.12 880.312 1231.15 880.344 1231.22 880.375Z" fill="#C18A32"/>
<path d="M296.342 1007.09C295.757 998.375 292.085 989.875 285.195 983.25C278.24 989.938 274.405 998.438 273.658 1007.09C277.818 1009.22 281.653 1011.97 285 1015.31C288.347 1012 292.182 1009.25 296.342 1007.09ZM285.163 993.219C287.21 996.438 288.64 1000.03 289.388 1003.78C287.86 1004.72 286.43 1005.75 285.033 1006.84C283.668 1005.78 282.205 1004.75 280.71 1003.81C281.522 1000.06 283.018 996.469 285.163 993.219ZM285 1025.28C282.335 1021.38 278.955 1017.97 275.055 1015.28C274.632 1015 274.178 1014.78 273.755 1014.47C274.178 1014.75 274.632 1015 275.022 1015.25C268.685 1010.84 260.917 1008.25 252.5 1008.25C252.5 1024.88 263.42 1038.94 278.598 1044.16C280.645 1044.88 282.79 1045.41 285 1045.75C287.21 1045.38 289.322 1044.84 291.402 1044.16C306.58 1038.94 317.5 1024.88 317.5 1008.25C303.915 1008.25 291.988 1015.03 285 1025.28ZM289.29 1038.25C287.86 1038.72 286.43 1039.09 284.967 1039.41C283.537 1039.12 282.14 1038.75 280.807 1038.28C270.115 1034.59 262.283 1025.81 259.845 1015.31C263.42 1016.12 266.832 1017.53 269.985 1019.47L269.92 1019.5C270.343 1019.78 270.765 1020.06 271.188 1020.28L271.415 1020.41C274.633 1022.66 277.395 1025.44 279.573 1028.69L285 1036.69L290.427 1028.72C292.67 1025.44 295.465 1022.62 298.65 1020.41L298.878 1020.25C299.17 1020.09 299.463 1019.91 299.755 1019.72L299.723 1019.66C302.908 1017.62 306.45 1016.13 310.155 1015.28C307.717 1025.81 299.918 1034.59 289.29 1038.25ZM275.217 1015.38C275.152 1015.34 275.087 1015.28 275.055 1015.25C275.055 1015.25 275.087 1015.25 275.087 1015.28C275.12 1015.31 275.152 1015.34 275.217 1015.38Z" fill="#C18A32"/>
<path d="M1053.34 1007.09C1052.76 998.375 1049.08 989.875 1042.19 983.25C1035.24 989.938 1031.4 998.438 1030.66 1007.09C1034.82 1009.22 1038.65 1011.97 1042 1015.31C1045.35 1012 1049.18 1009.25 1053.34 1007.09ZM1042.16 993.219C1044.21 996.438 1045.64 1000.03 1046.39 1003.78C1044.86 1004.72 1043.43 1005.75 1042.03 1006.84C1040.67 1005.78 1039.2 1004.75 1037.71 1003.81C1038.52 1000.06 1040.02 996.469 1042.16 993.219ZM1042 1025.28C1039.34 1021.38 1035.96 1017.97 1032.06 1015.28C1031.63 1015 1031.18 1014.78 1030.76 1014.47C1031.18 1014.75 1031.63 1015 1032.02 1015.25C1025.68 1010.84 1017.92 1008.25 1009.5 1008.25C1009.5 1024.88 1020.42 1038.94 1035.6 1044.16C1037.65 1044.88 1039.79 1045.41 1042 1045.75C1044.21 1045.38 1046.32 1044.84 1048.4 1044.16C1063.58 1038.94 1074.5 1024.88 1074.5 1008.25C1060.92 1008.25 1048.99 1015.03 1042 1025.28ZM1046.29 1038.25C1044.86 1038.72 1043.43 1039.09 1041.97 1039.41C1040.54 1039.12 1039.14 1038.75 1037.81 1038.28C1027.11 1034.59 1019.28 1025.81 1016.84 1015.31C1020.42 1016.12 1023.83 1017.53 1026.98 1019.47L1026.92 1019.5C1027.34 1019.78 1027.77 1020.06 1028.19 1020.28L1028.42 1020.41C1031.63 1022.66 1034.4 1025.44 1036.57 1028.69L1042 1036.69L1047.43 1028.72C1049.67 1025.44 1052.47 1022.62 1055.65 1020.41L1055.88 1020.25C1056.17 1020.09 1056.46 1019.91 1056.76 1019.72L1056.72 1019.66C1059.91 1017.62 1063.45 1016.13 1067.16 1015.28C1064.72 1025.81 1056.92 1034.59 1046.29 1038.25ZM1032.22 1015.38C1032.15 1015.34 1032.09 1015.28 1032.06 1015.25C1032.06 1015.25 1032.09 1015.25 1032.09 1015.28C1032.12 1015.31 1032.15 1015.34 1032.22 1015.38Z" fill="#C18A32"/>
<path d="M675.343 1007.09C674.758 998.375 671.085 989.875 664.195 983.25C657.24 989.938 653.405 998.438 652.657 1007.09C656.817 1009.22 660.653 1011.97 664 1015.31C667.347 1012 671.183 1009.25 675.343 1007.09ZM664.162 993.219C666.21 996.438 667.64 1000.03 668.388 1003.78C666.86 1004.72 665.43 1005.75 664.032 1006.84C662.667 1005.78 661.205 1004.75 659.71 1003.81C660.523 1000.06 662.017 996.469 664.162 993.219ZM664 1025.28C661.335 1021.38 657.955 1017.97 654.055 1015.28C653.632 1015 653.178 1014.78 652.755 1014.47C653.178 1014.75 653.633 1015 654.023 1015.25C647.685 1010.84 639.917 1008.25 631.5 1008.25C631.5 1024.88 642.42 1038.94 657.597 1044.16C659.645 1044.88 661.79 1045.41 664 1045.75C666.21 1045.38 668.323 1044.84 670.403 1044.16C685.58 1038.94 696.5 1024.88 696.5 1008.25C682.915 1008.25 670.988 1015.03 664 1025.28ZM668.29 1038.25C666.86 1038.72 665.43 1039.09 663.968 1039.41C662.538 1039.12 661.14 1038.75 659.807 1038.28C649.115 1034.59 641.282 1025.81 638.845 1015.31C642.42 1016.12 645.832 1017.53 648.985 1019.47L648.92 1019.5C649.342 1019.78 649.765 1020.06 650.188 1020.28L650.415 1020.41C653.632 1022.66 656.395 1025.44 658.573 1028.69L664 1036.69L669.427 1028.72C671.67 1025.44 674.465 1022.62 677.65 1020.41L677.878 1020.25C678.17 1020.09 678.463 1019.91 678.755 1019.72L678.722 1019.66C681.907 1017.62 685.45 1016.13 689.155 1015.28C686.718 1025.81 678.917 1034.59 668.29 1038.25ZM654.218 1015.38C654.153 1015.34 654.087 1015.28 654.055 1015.25C654.055 1015.25 654.088 1015.25 654.088 1015.28C654.12 1015.31 654.153 1015.34 654.218 1015.38Z" fill="#C18A32"/>
<path d="M1432.34 1007.09C1431.76 998.375 1428.08 989.875 1421.19 983.25C1414.24 989.938 1410.4 998.438 1409.66 1007.09C1413.82 1009.22 1417.65 1011.97 1421 1015.31C1424.35 1012 1428.18 1009.25 1432.34 1007.09ZM1421.16 993.219C1423.21 996.438 1424.64 1000.03 1425.39 1003.78C1423.86 1004.72 1422.43 1005.75 1421.03 1006.84C1419.67 1005.78 1418.2 1004.75 1416.71 1003.81C1417.52 1000.06 1419.02 996.469 1421.16 993.219ZM1421 1025.28C1418.34 1021.38 1414.96 1017.97 1411.06 1015.28C1410.63 1015 1410.18 1014.78 1409.76 1014.47C1410.18 1014.75 1410.63 1015 1411.02 1015.25C1404.68 1010.84 1396.92 1008.25 1388.5 1008.25C1388.5 1024.88 1399.42 1038.94 1414.6 1044.16C1416.65 1044.88 1418.79 1045.41 1421 1045.75C1423.21 1045.38 1425.32 1044.84 1427.4 1044.16C1442.58 1038.94 1453.5 1024.88 1453.5 1008.25C1439.92 1008.25 1427.99 1015.03 1421 1025.28ZM1425.29 1038.25C1423.86 1038.72 1422.43 1039.09 1420.97 1039.41C1419.54 1039.12 1418.14 1038.75 1416.81 1038.28C1406.11 1034.59 1398.28 1025.81 1395.84 1015.31C1399.42 1016.12 1402.83 1017.53 1405.98 1019.47L1405.92 1019.5C1406.34 1019.78 1406.77 1020.06 1407.19 1020.28L1407.42 1020.41C1410.63 1022.66 1413.4 1025.44 1415.57 1028.69L1421 1036.69L1426.43 1028.72C1428.67 1025.44 1431.47 1022.62 1434.65 1020.41L1434.88 1020.25C1435.17 1020.09 1435.46 1019.91 1435.76 1019.72L1435.72 1019.66C1438.91 1017.62 1442.45 1016.13 1446.16 1015.28C1443.72 1025.81 1435.92 1034.59 1425.29 1038.25ZM1411.22 1015.38C1411.15 1015.34 1411.09 1015.28 1411.06 1015.25C1411.06 1015.25 1411.09 1015.25 1411.09 1015.28C1411.12 1015.31 1411.15 1015.34 1411.22 1015.38Z" fill="#C18A32"/>
</svg>
