<svg width="36" height="36" viewBox="0 0 36 36" fill="none" xmlns="http://www.w3.org/2000/svg">
<path d="M11.8597 17.4322C11.12 17.4347 10.3933 17.6275 9.74969 17.9922C10.6558 15.6467 12.1587 13.5784 14.1097 11.9922C14.2213 11.9002 14.3137 11.7872 14.3817 11.6596C14.4496 11.5319 14.4918 11.3921 14.5057 11.2482C14.5196 11.1043 14.5051 10.959 14.4629 10.8207C14.4207 10.6824 14.3516 10.5538 14.2597 10.4422C14.1678 10.3305 14.0548 10.2381 13.9271 10.1702C13.7995 10.1022 13.6597 10.0601 13.5158 10.0461C13.3718 10.0322 13.2266 10.0468 13.0883 10.089C12.9499 10.1312 12.8213 10.2002 12.7097 10.2922C8.70969 13.5422 6.92969 18.0422 6.92969 20.8322C6.93658 21.8186 7.23056 22.7818 7.77573 23.604C8.3209 24.4262 9.09367 25.0718 9.99969 25.4622C10.586 25.7462 11.2282 25.8965 11.8797 25.9022C12.4531 25.93 13.0263 25.8411 13.5644 25.6409C14.1025 25.4406 14.5943 25.1332 15.01 24.7372C15.4257 24.3412 15.7567 23.8649 15.9828 23.3372C16.2089 22.8094 16.3255 22.2413 16.3255 21.6672C16.3255 21.093 16.2089 20.5249 15.9828 19.9971C15.7567 19.4694 15.4257 18.9931 15.01 18.5971C14.5943 18.2011 14.1025 17.8937 13.5644 17.6934C13.0263 17.4932 12.4531 17.4043 11.8797 17.4322H11.8597Z" fill="#C4A56F"/>
<path d="M23.0003 17.4323C22.2605 17.4339 21.5336 17.6269 20.8903 17.9923C21.7961 15.6493 23.2951 13.5818 25.2403 11.9923C25.3621 11.9046 25.4646 11.7928 25.5415 11.664C25.6185 11.5351 25.6682 11.3919 25.6878 11.2431C25.7073 11.0942 25.6961 10.943 25.655 10.7987C25.6139 10.6543 25.5437 10.5199 25.4487 10.4037C25.3537 10.2875 25.2359 10.192 25.1026 10.123C24.9693 10.0541 24.8233 10.0131 24.6736 10.0027C24.5238 9.99223 24.3736 10.0125 24.232 10.0624C24.0904 10.1122 23.9605 10.1904 23.8503 10.2923C19.8503 13.5423 18.0703 18.0423 18.0703 20.8323C18.0751 21.8077 18.3605 22.761 18.8924 23.5785C19.4244 24.396 20.1805 25.043 21.0703 25.4423C21.6715 25.7347 22.3318 25.8852 23.0003 25.8823C23.5738 25.9102 24.1469 25.8213 24.685 25.6211C25.2231 25.4208 25.7149 25.1134 26.1306 24.7174C26.5463 24.3214 26.8773 23.8451 27.1034 23.3174C27.3296 22.7896 27.4462 22.2215 27.4462 21.6473C27.4462 21.0732 27.3296 20.505 27.1034 19.9773C26.8773 19.4496 26.5463 18.9733 26.1306 18.5773C25.7149 18.1813 25.2231 17.8739 24.685 17.6736C24.1469 17.4734 23.5738 17.3845 23.0003 17.4123V17.4323Z" fill="#C4A56F"/>
</svg>
