<svg width="205" height="107" viewBox="0 0 205 107" fill="none" xmlns="http://www.w3.org/2000/svg">
<path d="M134.746 77.6598H71.9686C71.8414 77.6598 71.7155 77.6347 71.598 77.5861C71.4804 77.5375 71.3736 77.4663 71.2837 77.3764C71.1938 77.2866 71.1224 77.1799 71.0737 77.0625C71.0251 76.9452 71 76.8194 71 76.6923V32.3176C71 23.7465 74.4091 15.5264 80.4773 9.46562C86.5455 3.40489 94.7757 0 103.357 0C111.939 0 120.169 3.40489 126.238 9.46562C132.306 15.5264 135.715 23.7465 135.715 32.3176V76.6923C135.715 76.8194 135.69 76.9452 135.641 77.0625C135.592 77.1799 135.521 77.2866 135.431 77.3764C135.341 77.4663 135.234 77.5375 135.117 77.5861C134.999 77.6347 134.873 77.6598 134.746 77.6598ZM90.4322 55.331C87.0583 58.6925 85.1374 63.2406 85.0816 68H121.627C121.58 64.4106 120.475 60.9147 118.449 57.9495C116.423 54.9844 113.567 52.6817 110.238 51.3295C106.908 49.9774 103.254 49.6358 99.7308 50.3475C96.208 51.0592 92.9736 52.7927 90.4322 55.331ZM129.715 69.9399V75.7232H133.769V69.9399H129.715ZM129.715 36.8571V68.0033H133.769V36.8571H129.715ZM104.321 6.41845C111.135 6.68831 117.582 9.57728 122.314 14.4819C127.046 19.3866 129.698 25.9276 129.715 32.7389V34.9206H133.769V32.3176C133.746 24.4361 130.666 16.8701 125.176 11.2082C119.687 5.54641 112.214 2.22916 104.328 1.95301L104.321 6.41845ZM78.9254 69.9284V75.7117H127.776V69.9284H78.9254ZM78.9254 32.7273V67.9918H83.1394C83.1878 63.2284 84.9275 58.6369 88.0485 55.0348L79.9649 47.0039C79.7884 46.8223 79.6902 46.5788 79.6916 46.3257C79.693 46.0726 79.7938 45.8302 79.9724 45.6506C80.1509 45.471 80.3929 45.3685 80.6463 45.3653C80.8997 45.3621 81.1442 45.4583 81.3273 45.6333L89.3829 53.6461C90.2275 52.8397 91.1402 52.1076 92.1109 51.4578L83.8873 37.224C83.7597 37.0017 83.7258 36.7379 83.793 36.4906C83.8602 36.2432 84.023 36.0327 84.2456 35.9053C84.4682 35.7779 84.7323 35.744 84.98 35.8111C85.2276 35.8782 85.4384 36.0408 85.5659 36.2632L93.7681 50.4608C94.789 49.9105 95.8555 49.4492 96.9558 49.082L90.905 26.5014C90.8515 26.2577 90.8944 26.0028 91.0246 25.7899C91.1548 25.577 91.3624 25.4225 91.6039 25.3588C91.8454 25.2951 92.1022 25.3271 92.3207 25.448C92.5392 25.5689 92.7025 25.7695 92.7764 26.0078L98.8222 48.5637C99.9941 48.294 101.188 48.1288 102.389 48.0701V18.0345C102.399 17.7846 102.506 17.5484 102.686 17.3752C102.867 17.202 103.108 17.1053 103.358 17.1053C103.609 17.1053 103.849 17.202 104.03 17.3752C104.211 17.5484 104.317 17.7846 104.328 18.0345V48.0717C105.489 48.1262 106.644 48.2809 107.779 48.5341L113.818 26.0029C113.885 25.7566 114.047 25.5467 114.268 25.4191C114.489 25.2915 114.752 25.2564 114.999 25.3216C115.246 25.3868 115.457 25.5469 115.586 25.7671C115.715 25.9872 115.752 26.2494 115.688 26.4965L109.647 49.0375C110.753 49.3991 111.826 49.856 112.853 50.4032L121.027 36.2533C121.156 36.0354 121.367 35.8772 121.612 35.8129C121.857 35.7486 122.118 35.7833 122.338 35.9096C122.558 36.0358 122.719 36.2435 122.787 36.4876C122.855 36.7318 122.824 36.9927 122.701 37.2142L114.512 51.3887C115.491 52.0374 116.412 52.7702 117.264 53.5787L125.267 45.6333C125.45 45.4583 125.695 45.3621 125.948 45.3653C126.202 45.3685 126.444 45.471 126.622 45.6506C126.801 45.8302 126.902 46.0726 126.903 46.3257C126.904 46.5788 126.806 46.8223 126.63 47.0039L118.609 54.9821C121.765 58.5926 123.526 63.2105 123.574 68.0033H127.788V32.7389C127.788 26.2688 125.214 20.0637 120.634 15.4887C116.053 10.9137 109.84 8.34349 103.362 8.34349C96.8843 8.34349 90.6716 10.9137 86.091 15.4887C81.5103 20.0637 78.937 26.2688 78.937 32.7389L78.9254 32.7273ZM76.9997 34.9206V32.7389C77.0193 25.9296 79.6712 19.3909 84.4019 14.4876C89.1326 9.58433 95.5765 6.69525 102.389 6.42338V1.95301C94.5011 2.22789 87.027 5.54448 81.5357 11.2064C76.0444 16.8683 72.9631 24.435 72.9389 32.3176V34.9206H76.9997ZM76.9997 68.0033V36.8571H72.9389V68.0033H76.9997ZM76.9997 75.7232V69.9399H72.9389V75.7232H76.9997Z" fill="#BFA064"/>
<path d="M4.73337 91.48C5.33071 91.48 5.78937 91.544 6.10937 91.672C6.42937 91.8 6.70671 91.9387 6.94137 92.088C7.06937 92.1627 7.17071 92.2213 7.24537 92.264C7.33071 92.296 7.41071 92.312 7.48537 92.312C7.59204 92.312 7.66671 92.2533 7.70937 92.136C7.76271 92.0187 7.80537 91.8427 7.83737 91.608H8.20537C8.19471 91.8107 8.17871 92.0453 8.15737 92.312C8.14671 92.5787 8.13604 92.936 8.12537 93.384C8.12537 93.8213 8.12537 94.4027 8.12537 95.128H7.75737C7.72537 94.584 7.60271 94.0613 7.38937 93.56C7.18671 93.0587 6.89337 92.648 6.50937 92.328C6.13604 91.9973 5.65604 91.832 5.06937 91.832C4.54671 91.832 4.10937 91.9867 3.75737 92.296C3.41604 92.6053 3.24537 93.0213 3.24537 93.544C3.24537 93.992 3.35737 94.3707 3.58137 94.68C3.80537 94.9787 4.12004 95.272 4.52537 95.56C4.94137 95.8373 5.43204 96.1573 5.99737 96.52C6.52004 96.8613 6.98937 97.2027 7.40537 97.544C7.82137 97.8747 8.14671 98.2427 8.38137 98.648C8.62671 99.0533 8.74937 99.5493 8.74937 100.136C8.74937 100.829 8.57871 101.405 8.23737 101.864C7.89604 102.323 7.43737 102.664 6.86137 102.888C6.28537 103.112 5.65604 103.224 4.97337 103.224C4.34404 103.224 3.84271 103.16 3.46937 103.032C3.10671 102.904 2.79204 102.771 2.52537 102.632C2.29071 102.483 2.10937 102.408 1.98137 102.408C1.87471 102.408 1.79471 102.467 1.74137 102.584C1.69871 102.701 1.66137 102.877 1.62937 103.112H1.26137C1.28271 102.867 1.29337 102.579 1.29337 102.248C1.30404 101.917 1.30937 101.491 1.30937 100.968C1.32004 100.435 1.32537 99.7627 1.32537 98.952H1.69337C1.73604 99.6347 1.85337 100.275 2.04537 100.872C2.24804 101.459 2.55204 101.933 2.95737 102.296C3.37337 102.659 3.92271 102.84 4.60537 102.84C4.97871 102.84 5.31471 102.776 5.61337 102.648C5.92271 102.509 6.16804 102.301 6.34937 102.024C6.53071 101.736 6.62137 101.373 6.62137 100.936C6.62137 100.499 6.52004 100.115 6.31737 99.784C6.11471 99.4533 5.83204 99.144 5.46937 98.856C5.10671 98.568 4.68004 98.2747 4.18937 97.976C3.68804 97.656 3.21871 97.3307 2.78137 97C2.34404 96.6693 1.99204 96.296 1.72537 95.88C1.46937 95.4533 1.34137 94.9413 1.34137 94.344C1.34137 93.6827 1.50137 93.144 1.82137 92.728C2.14137 92.3013 2.55737 91.9867 3.06937 91.784C3.59204 91.5813 4.14671 91.48 4.73337 91.48ZM18.6305 91.624L22.5185 101.656C22.6785 102.04 22.8492 102.307 23.0305 102.456C23.2225 102.595 23.3985 102.669 23.5585 102.68V103C23.2812 102.979 22.9452 102.968 22.5505 102.968C22.1665 102.957 21.7718 102.952 21.3665 102.952C20.8972 102.952 20.4598 102.957 20.0545 102.968C19.6492 102.968 19.3185 102.979 19.0625 103V102.68C19.6065 102.659 19.9532 102.568 20.1025 102.408C20.2518 102.237 20.2198 101.88 20.0065 101.336L17.1905 93.736L17.4785 93.384L14.9185 100.024C14.7158 100.557 14.5932 100.995 14.5505 101.336C14.5078 101.677 14.5345 101.944 14.6305 102.136C14.7265 102.328 14.8865 102.467 15.1105 102.552C15.3345 102.627 15.6118 102.669 15.9425 102.68V103C15.6012 102.979 15.2705 102.968 14.9505 102.968C14.6305 102.957 14.3105 102.952 13.9905 102.952C13.7558 102.952 13.5318 102.957 13.3185 102.968C13.1158 102.968 12.9345 102.979 12.7745 103V102.68C13.0092 102.627 13.2385 102.488 13.4625 102.264C13.6972 102.04 13.9212 101.651 14.1345 101.096L17.7985 91.624C17.9265 91.6347 18.0652 91.64 18.2145 91.64C18.3638 91.64 18.5025 91.6347 18.6305 91.624ZM20.0225 98.392V98.712H15.2545L15.4145 98.392H20.0225ZM37.7944 91.672V91.992C37.453 92.024 37.1917 92.104 37.0104 92.232C36.829 92.3493 36.7064 92.5413 36.6424 92.808C36.589 93.064 36.5624 93.432 36.5624 93.912V103.048C36.4664 103.037 36.3597 103.032 36.2424 103.032C36.1357 103.032 36.0184 103.037 35.8904 103.048L29.0264 93.72V100.632C29.0264 101.144 29.0584 101.544 29.1224 101.832C29.1864 102.109 29.325 102.312 29.5384 102.44C29.7624 102.557 30.0984 102.637 30.5464 102.68V103C30.3437 102.979 30.0824 102.968 29.7624 102.968C29.4424 102.957 29.1384 102.952 28.8504 102.952C28.5944 102.952 28.333 102.957 28.0664 102.968C27.8104 102.968 27.597 102.979 27.4264 103V102.68C27.7784 102.637 28.0397 102.557 28.2104 102.44C28.3917 102.323 28.509 102.131 28.5624 101.864C28.6264 101.597 28.6584 101.229 28.6584 100.76V93.368C28.6584 92.9733 28.6264 92.6853 28.5624 92.504C28.509 92.312 28.3917 92.184 28.2104 92.12C28.0397 92.0453 27.7784 92.0027 27.4264 91.992V91.672C27.597 91.6827 27.8104 91.6933 28.0664 91.704C28.333 91.7147 28.5944 91.72 28.8504 91.72C29.0957 91.72 29.3357 91.7147 29.5704 91.704C29.805 91.6933 30.013 91.6827 30.1944 91.672L36.1944 99.656V94.04C36.1944 93.5173 36.1624 93.1173 36.0984 92.84C36.0344 92.5627 35.8957 92.36 35.6824 92.232C35.469 92.104 35.133 92.024 34.6744 91.992V91.672C34.877 91.6827 35.1384 91.6933 35.4584 91.704C35.789 91.7147 36.093 91.72 36.3704 91.72C36.637 91.72 36.8984 91.7147 37.1544 91.704C37.421 91.6933 37.6344 91.6827 37.7944 91.672ZM47.2955 91.672C49.3435 91.672 50.8582 92.152 51.8395 93.112C52.8315 94.0613 53.3275 95.4267 53.3275 97.208C53.3275 98.3707 53.0822 99.3893 52.5915 100.264C52.1115 101.128 51.4128 101.8 50.4955 102.28C49.5782 102.76 48.4635 103 47.1515 103C46.9915 103 46.7728 102.995 46.4955 102.984C46.2288 102.973 45.9462 102.968 45.6475 102.968C45.3595 102.957 45.0928 102.952 44.8475 102.952C44.4102 102.952 43.9835 102.957 43.5675 102.968C43.1515 102.968 42.8102 102.979 42.5435 103V102.68C42.8955 102.659 43.1568 102.616 43.3275 102.552C43.5088 102.488 43.6262 102.36 43.6795 102.168C43.7435 101.976 43.7755 101.688 43.7755 101.304V93.368C43.7755 92.9733 43.7435 92.6853 43.6795 92.504C43.6262 92.312 43.5088 92.184 43.3275 92.12C43.1568 92.0453 42.8955 92.0027 42.5435 91.992V91.672C42.8102 91.6827 43.1515 91.6987 43.5675 91.72C43.9835 91.7307 44.3995 91.7307 44.8155 91.72C45.1995 91.7093 45.6315 91.6987 46.1115 91.688C46.5915 91.6773 46.9862 91.672 47.2955 91.672ZM47.1515 91.96C46.6608 91.96 46.3408 92.0507 46.1915 92.232C46.0422 92.4133 45.9675 92.7813 45.9675 93.336V101.336C45.9675 101.891 46.0422 102.259 46.1915 102.44C46.3515 102.621 46.6768 102.712 47.1675 102.712C48.1595 102.712 48.9328 102.504 49.4875 102.088C50.0528 101.661 50.4475 101.043 50.6715 100.232C50.9062 99.4213 51.0235 98.4347 51.0235 97.272C51.0235 96.0773 50.8955 95.0907 50.6395 94.312C50.3942 93.5227 49.9888 92.936 49.4235 92.552C48.8582 92.1573 48.1008 91.96 47.1515 91.96ZM62.8639 91.672V91.992C62.5225 92.0027 62.2612 92.0453 62.0799 92.12C61.9092 92.184 61.7919 92.312 61.7279 92.504C61.6639 92.6853 61.6319 92.9733 61.6319 93.368V101.304C61.6319 101.688 61.6639 101.976 61.7279 102.168C61.7919 102.36 61.9092 102.488 62.0799 102.552C62.2612 102.616 62.5225 102.659 62.8639 102.68V103C62.5972 102.979 62.2559 102.968 61.8399 102.968C61.4239 102.957 61.0025 102.952 60.5759 102.952C60.0959 102.952 59.6479 102.957 59.2319 102.968C58.8159 102.968 58.4745 102.979 58.2079 103V102.68C58.5599 102.659 58.8212 102.616 58.9919 102.552C59.1732 102.488 59.2905 102.36 59.3439 102.168C59.4079 101.976 59.4399 101.688 59.4399 101.304V93.368C59.4399 92.9733 59.4079 92.6853 59.3439 92.504C59.2905 92.312 59.1732 92.184 58.9919 92.12C58.8212 92.0453 58.5599 92.0027 58.2079 91.992V91.672C58.4745 91.6827 58.8159 91.6933 59.2319 91.704C59.6479 91.7147 60.0959 91.72 60.5759 91.72C61.0025 91.72 61.4239 91.7147 61.8399 91.704C62.2559 91.6933 62.5972 91.6827 62.8639 91.672ZM78.1 91.672V91.992C77.7587 92.024 77.4973 92.104 77.316 92.232C77.1347 92.3493 77.012 92.5413 76.948 92.808C76.8947 93.064 76.868 93.432 76.868 93.912V103.048C76.772 103.037 76.6653 103.032 76.548 103.032C76.4413 103.032 76.324 103.037 76.196 103.048L69.332 93.72V100.632C69.332 101.144 69.364 101.544 69.428 101.832C69.492 102.109 69.6307 102.312 69.844 102.44C70.068 102.557 70.404 102.637 70.852 102.68V103C70.6493 102.979 70.388 102.968 70.068 102.968C69.748 102.957 69.444 102.952 69.156 102.952C68.9 102.952 68.6387 102.957 68.372 102.968C68.116 102.968 67.9027 102.979 67.732 103V102.68C68.084 102.637 68.3453 102.557 68.516 102.44C68.6973 102.323 68.8147 102.131 68.868 101.864C68.932 101.597 68.964 101.229 68.964 100.76V93.368C68.964 92.9733 68.932 92.6853 68.868 92.504C68.8147 92.312 68.6973 92.184 68.516 92.12C68.3453 92.0453 68.084 92.0027 67.732 91.992V91.672C67.9027 91.6827 68.116 91.6933 68.372 91.704C68.6387 91.7147 68.9 91.72 69.156 91.72C69.4013 91.72 69.6413 91.7147 69.876 91.704C70.1107 91.6933 70.3187 91.6827 70.5 91.672L76.5 99.656V94.04C76.5 93.5173 76.468 93.1173 76.404 92.84C76.34 92.5627 76.2013 92.36 75.988 92.232C75.7747 92.104 75.4387 92.024 74.98 91.992V91.672C75.1827 91.6827 75.444 91.6933 75.764 91.704C76.0947 91.7147 76.3987 91.72 76.676 91.72C76.9427 91.72 77.204 91.7147 77.46 91.704C77.7267 91.6933 77.94 91.6827 78.1 91.672ZM92.2891 91.672C92.2465 92.1627 92.2145 92.6427 92.1931 93.112C92.1825 93.5707 92.1771 93.9227 92.1771 94.168C92.1771 94.4133 92.1825 94.6427 92.1931 94.856C92.2038 95.0693 92.2145 95.256 92.2251 95.416H91.8571C91.7078 94.5627 91.5265 93.896 91.3131 93.416C91.0998 92.9253 90.8171 92.5733 90.4651 92.36C90.1238 92.1467 89.6705 92.04 89.1051 92.04H88.5931V101.16C88.5931 101.597 88.6305 101.923 88.7051 102.136C88.7905 102.349 88.9558 102.493 89.2011 102.568C89.4465 102.632 89.8038 102.669 90.2731 102.68V103C89.9531 102.979 89.5371 102.968 89.0251 102.968C88.5131 102.957 87.9905 102.952 87.4571 102.952C86.9025 102.952 86.3798 102.957 85.8891 102.968C85.4091 102.968 85.0198 102.979 84.7211 103V102.68C85.1798 102.669 85.5318 102.632 85.7771 102.568C86.0225 102.493 86.1878 102.349 86.2731 102.136C86.3585 101.923 86.4011 101.597 86.4011 101.16V92.04H85.8731C85.3185 92.04 84.8651 92.1467 84.5131 92.36C84.1611 92.5733 83.8785 92.9253 83.6651 93.416C83.4518 93.896 83.2758 94.5627 83.1371 95.416H82.7691C82.7905 95.256 82.8011 95.0693 82.8011 94.856C82.8118 94.6427 82.8171 94.4133 82.8171 94.168C82.8171 93.9227 82.8065 93.5707 82.7851 93.112C82.7745 92.6427 82.7478 92.1627 82.7051 91.672C83.1745 91.6827 83.6918 91.6933 84.2571 91.704C84.8225 91.7147 85.3878 91.72 85.9531 91.72C86.5185 91.72 87.0358 91.72 87.5051 91.72C87.9638 91.72 88.4758 91.72 89.0411 91.72C89.6065 91.72 90.1718 91.7147 90.7371 91.704C91.3025 91.6933 91.8198 91.6827 92.2891 91.672ZM102.599 91.448C103.687 91.448 104.641 91.6773 105.463 92.136C106.284 92.5947 106.919 93.256 107.367 94.12C107.825 94.9733 108.055 96.0133 108.055 97.24C108.055 98.4347 107.82 99.48 107.351 100.376C106.892 101.272 106.247 101.971 105.415 102.472C104.593 102.973 103.649 103.224 102.583 103.224C101.495 103.224 100.54 102.995 99.7186 102.536C98.8973 102.077 98.2573 101.416 97.7986 100.552C97.3506 99.688 97.1266 98.648 97.1266 97.432C97.1266 96.2373 97.3613 95.192 97.8306 94.296C98.3 93.4 98.9453 92.7013 99.7666 92.2C100.588 91.6987 101.532 91.448 102.599 91.448ZM102.535 91.736C101.905 91.736 101.356 91.976 100.887 92.456C100.428 92.936 100.071 93.5973 99.8146 94.44C99.5586 95.2827 99.4306 96.2587 99.4306 97.368C99.4306 98.4987 99.5746 99.4853 99.8626 100.328C100.151 101.16 100.54 101.805 101.031 102.264C101.521 102.712 102.06 102.936 102.647 102.936C103.276 102.936 103.82 102.696 104.279 102.216C104.748 101.736 105.111 101.075 105.367 100.232C105.623 99.3787 105.751 98.4027 105.751 97.304C105.751 96.1627 105.607 95.176 105.319 94.344C105.031 93.512 104.641 92.872 104.151 92.424C103.671 91.9653 103.132 91.736 102.535 91.736ZM123.312 91.672V91.992C122.971 92.024 122.709 92.104 122.528 92.232C122.347 92.3493 122.224 92.5413 122.16 92.808C122.107 93.064 122.08 93.432 122.08 93.912V103.048C121.984 103.037 121.877 103.032 121.76 103.032C121.653 103.032 121.536 103.037 121.408 103.048L114.544 93.72V100.632C114.544 101.144 114.576 101.544 114.64 101.832C114.704 102.109 114.843 102.312 115.056 102.44C115.28 102.557 115.616 102.637 116.064 102.68V103C115.861 102.979 115.6 102.968 115.28 102.968C114.96 102.957 114.656 102.952 114.368 102.952C114.112 102.952 113.851 102.957 113.584 102.968C113.328 102.968 113.115 102.979 112.944 103V102.68C113.296 102.637 113.557 102.557 113.728 102.44C113.909 102.323 114.027 102.131 114.08 101.864C114.144 101.597 114.176 101.229 114.176 100.76V93.368C114.176 92.9733 114.144 92.6853 114.08 92.504C114.027 92.312 113.909 92.184 113.728 92.12C113.557 92.0453 113.296 92.0027 112.944 91.992V91.672C113.115 91.6827 113.328 91.6933 113.584 91.704C113.851 91.7147 114.112 91.72 114.368 91.72C114.613 91.72 114.853 91.7147 115.088 91.704C115.323 91.6933 115.531 91.6827 115.712 91.672L121.712 99.656V94.04C121.712 93.5173 121.68 93.1173 121.616 92.84C121.552 92.5627 121.413 92.36 121.2 92.232C120.987 92.104 120.651 92.024 120.192 91.992V91.672C120.395 91.6827 120.656 91.6933 120.976 91.704C121.307 91.7147 121.611 91.72 121.888 91.72C122.155 91.72 122.416 91.7147 122.672 91.704C122.939 91.6933 123.152 91.6827 123.312 91.672ZM142.321 103V102.68C142.673 102.659 142.934 102.616 143.105 102.552C143.286 102.488 143.404 102.36 143.457 102.168C143.521 101.976 143.553 101.688 143.553 101.304V93.368C143.553 92.9733 143.521 92.6853 143.457 92.504C143.404 92.312 143.286 92.184 143.105 92.12C142.934 92.0453 142.673 92.0027 142.321 91.992V91.672C142.609 91.6827 142.966 91.6933 143.393 91.704C143.82 91.7147 144.246 91.72 144.673 91.72C145.142 91.72 145.58 91.7147 145.985 91.704C146.401 91.6933 146.732 91.6827 146.977 91.672V91.992C146.636 92.0027 146.374 92.0453 146.193 92.12C146.022 92.184 145.905 92.312 145.841 92.504C145.777 92.6853 145.745 92.9733 145.745 93.368V101.304C145.745 101.688 145.777 101.976 145.841 102.168C145.905 102.36 146.022 102.488 146.193 102.552C146.374 102.616 146.636 102.659 146.977 102.68V103C146.732 102.979 146.401 102.968 145.985 102.968C145.58 102.957 145.142 102.952 144.673 102.952C144.246 102.952 143.82 102.957 143.393 102.968C142.966 102.968 142.609 102.979 142.321 103ZM135.569 103V102.68C135.921 102.659 136.182 102.616 136.353 102.552C136.534 102.488 136.652 102.36 136.705 102.168C136.769 101.976 136.801 101.688 136.801 101.304V93.368C136.801 92.9733 136.769 92.6853 136.705 92.504C136.652 92.312 136.534 92.184 136.353 92.12C136.182 92.0453 135.921 92.0027 135.569 91.992V91.672C135.836 91.6827 136.177 91.6933 136.593 91.704C137.009 91.7147 137.457 91.72 137.937 91.72C138.364 91.72 138.785 91.7147 139.201 91.704C139.617 91.6933 139.958 91.6827 140.225 91.672V91.992C139.884 92.0027 139.622 92.0453 139.441 92.12C139.27 92.184 139.153 92.312 139.089 92.504C139.025 92.6853 138.993 92.9733 138.993 93.368V101.304C138.993 101.688 139.025 101.976 139.089 102.168C139.153 102.36 139.27 102.488 139.441 102.552C139.622 102.616 139.884 102.659 140.225 102.68V103C139.958 102.979 139.617 102.968 139.201 102.968C138.785 102.957 138.364 102.952 137.937 102.952C137.457 102.952 137.009 102.957 136.593 102.968C136.177 102.968 135.836 102.979 135.569 103ZM138.113 97.464V97.144H144.433V97.464H138.113ZM157.334 91.448C158.422 91.448 159.377 91.6773 160.198 92.136C161.02 92.5947 161.654 93.256 162.102 94.12C162.561 94.9733 162.79 96.0133 162.79 97.24C162.79 98.4347 162.556 99.48 162.086 100.376C161.628 101.272 160.982 101.971 160.15 102.472C159.329 102.973 158.385 103.224 157.318 103.224C156.23 103.224 155.276 102.995 154.454 102.536C153.633 102.077 152.993 101.416 152.534 100.552C152.086 99.688 151.862 98.648 151.862 97.432C151.862 96.2373 152.097 95.192 152.566 94.296C153.036 93.4 153.681 92.7013 154.502 92.2C155.324 91.6987 156.268 91.448 157.334 91.448ZM157.27 91.736C156.641 91.736 156.092 91.976 155.622 92.456C155.164 92.936 154.806 93.5973 154.55 94.44C154.294 95.2827 154.166 96.2587 154.166 97.368C154.166 98.4987 154.31 99.4853 154.598 100.328C154.886 101.16 155.276 101.805 155.766 102.264C156.257 102.712 156.796 102.936 157.382 102.936C158.012 102.936 158.556 102.696 159.014 102.216C159.484 101.736 159.846 101.075 160.102 100.232C160.358 99.3787 160.486 98.4027 160.486 97.304C160.486 96.1627 160.342 95.176 160.054 94.344C159.766 93.512 159.377 92.872 158.886 92.424C158.406 91.9653 157.868 91.736 157.27 91.736ZM177.228 91.672C177.186 92.1627 177.154 92.6427 177.132 93.112C177.122 93.5707 177.116 93.9227 177.116 94.168C177.116 94.4133 177.122 94.6427 177.132 94.856C177.143 95.0693 177.154 95.256 177.164 95.416H176.796C176.647 94.5627 176.466 93.896 176.252 93.416C176.039 92.9253 175.756 92.5733 175.404 92.36C175.063 92.1467 174.61 92.04 174.044 92.04H173.532V101.16C173.532 101.597 173.57 101.923 173.644 102.136C173.73 102.349 173.895 102.493 174.14 102.568C174.386 102.632 174.743 102.669 175.212 102.68V103C174.892 102.979 174.476 102.968 173.964 102.968C173.452 102.957 172.93 102.952 172.396 102.952C171.842 102.952 171.319 102.957 170.828 102.968C170.348 102.968 169.959 102.979 169.66 103V102.68C170.119 102.669 170.471 102.632 170.716 102.568C170.962 102.493 171.127 102.349 171.212 102.136C171.298 101.923 171.34 101.597 171.34 101.16V92.04H170.812C170.258 92.04 169.804 92.1467 169.452 92.36C169.1 92.5733 168.818 92.9253 168.604 93.416C168.391 93.896 168.215 94.5627 168.076 95.416H167.708C167.73 95.256 167.74 95.0693 167.74 94.856C167.751 94.6427 167.756 94.4133 167.756 94.168C167.756 93.9227 167.746 93.5707 167.724 93.112C167.714 92.6427 167.687 92.1627 167.644 91.672C168.114 91.6827 168.631 91.6933 169.196 91.704C169.762 91.7147 170.327 91.72 170.892 91.72C171.458 91.72 171.975 91.72 172.444 91.72C172.903 91.72 173.415 91.72 173.98 91.72C174.546 91.72 175.111 91.7147 175.676 91.704C176.242 91.6933 176.759 91.6827 177.228 91.672ZM190.274 91.672C190.231 92.1093 190.199 92.536 190.178 92.952C190.167 93.3573 190.162 93.6667 190.162 93.88C190.162 94.0827 190.167 94.28 190.178 94.472C190.189 94.6533 190.199 94.808 190.21 94.936H189.842C189.757 94.2 189.618 93.624 189.426 93.208C189.234 92.7813 188.973 92.4827 188.642 92.312C188.322 92.1307 187.901 92.04 187.378 92.04H186.498C186.178 92.04 185.933 92.0667 185.762 92.12C185.591 92.1733 185.474 92.2853 185.41 92.456C185.357 92.6267 185.33 92.888 185.33 93.24V101.432C185.33 101.773 185.357 102.035 185.41 102.216C185.474 102.387 185.591 102.499 185.762 102.552C185.933 102.605 186.178 102.632 186.498 102.632H187.41C187.954 102.632 188.407 102.531 188.77 102.328C189.143 102.125 189.442 101.795 189.666 101.336C189.89 100.867 190.055 100.227 190.162 99.416H190.53C190.498 99.7467 190.482 100.173 190.482 100.696C190.482 100.92 190.487 101.245 190.498 101.672C190.519 102.099 190.551 102.541 190.594 103C190.05 102.979 189.437 102.968 188.754 102.968C188.071 102.957 187.463 102.952 186.93 102.952C186.685 102.952 186.359 102.952 185.954 102.952C185.559 102.952 185.127 102.957 184.658 102.968C184.199 102.968 183.73 102.973 183.25 102.984C182.781 102.984 182.333 102.989 181.906 103V102.68C182.258 102.659 182.519 102.616 182.69 102.552C182.871 102.488 182.989 102.36 183.042 102.168C183.106 101.976 183.138 101.688 183.138 101.304V93.368C183.138 92.9733 183.106 92.6853 183.042 92.504C182.989 92.312 182.871 92.184 182.69 92.12C182.519 92.0453 182.258 92.0027 181.906 91.992V91.672C182.333 91.6827 182.781 91.6933 183.25 91.704C183.73 91.704 184.199 91.7093 184.658 91.72C185.127 91.72 185.559 91.72 185.954 91.72C186.359 91.72 186.685 91.72 186.93 91.72C187.421 91.72 187.975 91.72 188.594 91.72C189.223 91.7093 189.783 91.6933 190.274 91.672ZM187.698 97.144C187.698 97.144 187.698 97.1973 187.698 97.304C187.698 97.4107 187.698 97.464 187.698 97.464H184.85C184.85 97.464 184.85 97.4107 184.85 97.304C184.85 97.1973 184.85 97.144 184.85 97.144H187.698ZM188.162 95.032C188.119 95.64 188.098 96.104 188.098 96.424C188.109 96.744 188.114 97.0373 188.114 97.304C188.114 97.5707 188.119 97.864 188.13 98.184C188.141 98.504 188.167 98.968 188.21 99.576H187.842C187.789 99.2133 187.703 98.872 187.586 98.552C187.479 98.2213 187.303 97.96 187.058 97.768C186.823 97.5653 186.482 97.464 186.034 97.464V97.144C186.365 97.144 186.631 97.0747 186.834 96.936C187.047 96.7973 187.218 96.6213 187.346 96.408C187.474 96.184 187.57 95.9547 187.634 95.72C187.709 95.4747 187.762 95.2453 187.794 95.032H188.162ZM200.306 91.672V91.992C199.943 92.0027 199.666 92.0453 199.474 92.12C199.293 92.184 199.17 92.312 199.106 92.504C199.042 92.6853 199.01 92.9733 199.01 93.368V101.432C199.01 101.773 199.037 102.035 199.09 102.216C199.154 102.387 199.266 102.499 199.426 102.552C199.586 102.605 199.815 102.632 200.114 102.632H201.026C201.442 102.632 201.805 102.557 202.114 102.408C202.434 102.259 202.711 102.04 202.946 101.752C203.181 101.464 203.373 101.112 203.522 100.696C203.671 100.269 203.778 99.7893 203.842 99.256H204.21C204.178 99.608 204.162 100.067 204.162 100.632C204.162 100.867 204.167 101.203 204.178 101.64C204.199 102.077 204.231 102.531 204.274 103C203.73 102.979 203.117 102.968 202.434 102.968C201.751 102.957 201.143 102.952 200.61 102.952C200.354 102.952 200.029 102.952 199.634 102.952C199.239 102.952 198.807 102.957 198.338 102.968C197.879 102.968 197.41 102.973 196.93 102.984C196.461 102.984 196.013 102.989 195.586 103V102.68C195.938 102.659 196.199 102.616 196.37 102.552C196.551 102.488 196.669 102.36 196.722 102.168C196.786 101.976 196.818 101.688 196.818 101.304V93.368C196.818 92.9733 196.786 92.6853 196.722 92.504C196.669 92.312 196.551 92.184 196.37 92.12C196.199 92.0453 195.938 92.0027 195.586 91.992V91.672C195.853 91.6827 196.194 91.6933 196.61 91.704C197.026 91.7147 197.474 91.72 197.954 91.72C198.391 91.72 198.823 91.7147 199.25 91.704C199.677 91.6933 200.029 91.6827 200.306 91.672Z" fill="#BFA064"/>
</svg>
