<svg width="198" height="40" viewBox="0 0 198 40" fill="none" xmlns="http://www.w3.org/2000/svg">
<g filter="url(#filter0_b_50_72)">
<path d="M45.48 34.48C43.9067 34.48 42.4133 34.2933 41 33.92C39.6133 33.5467 38.5333 33.2133 37.76 32.92V31.04C38.2133 31.2533 38.8267 31.5333 39.6 31.88C40.3733 32.2 41.2267 32.48 42.16 32.72C43.0933 32.96 44 33.08 44.88 33.08C46.64 33.08 48.0533 32.6267 49.12 31.72C50.2133 30.7867 50.76 29.48 50.76 27.8C50.76 26.76 50.4533 25.8667 49.84 25.12C49.2267 24.3733 48.4267 23.6933 47.44 23.08C46.48 22.4667 45.4533 21.88 44.36 21.32C43.2667 20.7333 42.2267 20.1067 41.24 19.44C40.28 18.7467 39.4933 17.9467 38.88 17.04C38.2667 16.1067 37.96 15.0133 37.96 13.76C37.96 12.72 38.24 11.6933 38.8 10.68C39.36 9.64 40.2533 8.77333 41.48 8.08C42.7067 7.38667 44.32 7.04 46.32 7.04C47.4133 7.04 48.6 7.17333 49.88 7.44C51.16 7.70667 52.2667 7.98667 53.2 8.28L52.8 11C51.2533 10.3333 49.72 9.78667 48.2 9.36C46.68 8.90667 45.1333 8.68 43.56 8.68C42.7867 9.05333 42.24 9.54667 41.92 10.16C41.6267 10.7467 41.48 11.4 41.48 12.12C41.48 13.1867 41.8 14.1333 42.44 14.96C43.08 15.76 43.9067 16.5067 44.92 17.2C45.96 17.8667 47.04 18.52 48.16 19.16C49.3067 19.8 50.3867 20.4933 51.4 21.24C52.44 21.9867 53.28 22.8267 53.92 23.76C54.56 24.6933 54.88 25.7867 54.88 27.04C54.88 28.4267 54.5333 29.6933 53.84 30.84C53.1467 31.96 52.1067 32.8533 50.72 33.52C49.3333 34.16 47.5867 34.48 45.48 34.48ZM71.9066 34.52L68.6666 31.6C67.7066 32.48 66.7599 33.1867 65.8266 33.72C64.9199 34.2267 63.9199 34.48 62.8266 34.48C61.7332 34.48 60.7466 34.12 59.8666 33.4C58.9866 32.68 58.5466 31.6533 58.5466 30.32C58.5466 29.28 58.8932 28.4133 59.5866 27.72C60.2799 27 61.1599 26.4267 62.2266 26C63.2932 25.5733 64.3999 25.2533 65.5466 25.04C66.6932 24.8267 67.7199 24.6933 68.6266 24.64V20.88C68.6266 18.6667 67.3466 17.56 64.7866 17.56C64.1199 17.56 63.3466 17.64 62.4666 17.8C61.6132 17.9333 60.6532 18.1733 59.5866 18.52L59.2266 17.52C59.5199 17.28 60.0132 17 60.7066 16.68C61.3999 16.36 62.1999 16.08 63.1066 15.84C64.0132 15.5733 64.9332 15.44 65.8666 15.44C67.3866 15.44 68.5599 15.6667 69.3866 16.12C70.2132 16.5467 70.7999 17.1067 71.1466 17.8C71.4932 18.4667 71.7066 19.1733 71.7866 19.92C71.8666 20.64 71.9066 21.2933 71.9066 21.88V28.68C71.9066 29.5867 72.0266 30.3333 72.2666 30.92C72.5332 31.5067 72.8266 31.96 73.1466 32.28C73.4932 32.6 73.7732 32.84 73.9866 33L71.9066 34.52ZM64.3466 32.64C64.9866 32.5067 65.6266 32.2533 66.2666 31.88C66.9332 31.48 67.4932 31.08 67.9466 30.68C68.3999 30.2533 68.6266 29.9467 68.6266 29.76V25.64C66.6266 25.7733 65.0266 26.2133 63.8266 26.96C62.6532 27.68 62.0666 28.4533 62.0666 29.28C62.0666 30.1067 62.2799 30.8267 62.7066 31.44C63.1599 32.0267 63.7066 32.4267 64.3466 32.64ZM78.2 34V21.44C78.2 20.5067 78.0667 19.76 77.8 19.2C77.56 18.6133 77.28 18.16 76.96 17.84C76.64 17.4933 76.3733 17.24 76.16 17.08L78.2 15.56L81.48 18.48C82.4667 17.5467 83.3867 16.8133 84.24 16.28C85.12 15.72 86.1467 15.44 87.32 15.44C87.9333 15.44 88.6 15.6 89.32 15.92C90.0667 16.24 90.7067 16.84 91.24 17.72C91.7733 18.5733 92.04 19.8267 92.04 21.48V34H88.64V21.88C88.64 20.6267 88.4133 19.6667 87.96 19C87.5333 18.3067 86.7333 17.96 85.56 17.96C84.4133 17.96 83.0933 18.7067 81.6 20.2V34H78.2ZM111.96 34.52L108.68 31.6C107.693 32.5067 106.76 33.2133 105.88 33.72C105.027 34.2267 104.013 34.48 102.84 34.48C102.253 34.48 101.573 34.3467 100.8 34.08C100.027 33.84 99.28 33.3867 98.56 32.72C97.84 32.0533 97.24 31.0933 96.76 29.84C96.28 28.56 96.04 26.92 96.04 24.92C96.04 23.88 96.1867 22.8133 96.48 21.72C96.7733 20.6 97.2133 19.5733 97.8 18.64C98.3867 17.68 99.12 16.92 100 16.36C100.907 15.7733 101.96 15.48 103.16 15.48C103.933 15.48 104.773 15.6267 105.68 15.92C106.587 16.2133 107.547 16.68 108.56 17.32V6.68H111.96V28.64C111.96 29.5467 112.08 30.2933 112.32 30.88C112.587 31.4667 112.88 31.9333 113.2 32.28C113.52 32.6 113.787 32.8533 114 33.04L111.96 34.52ZM103.12 32.68C104.16 32.6 105.08 32.3733 105.88 32C106.707 31.6267 107.36 31.24 107.84 30.84C108.32 30.44 108.56 30.1467 108.56 29.96V18.8C107.84 18.32 107.147 17.9733 106.48 17.76C105.84 17.52 105.24 17.4 104.68 17.4C103.613 17.4 102.693 17.7467 101.92 18.44C101.173 19.1067 100.587 20.0267 100.16 21.2C99.76 22.3467 99.56 23.64 99.56 25.08C99.56 27.3467 99.92 29.12 100.64 30.4C101.36 31.68 102.187 32.44 103.12 32.68ZM118 34V15.92H121.32V34H118ZM119.64 12.36C119.053 12.36 118.56 12.1467 118.16 11.72C117.787 11.2933 117.6 10.8133 117.6 10.28C117.6 9.69333 117.787 9.2 118.16 8.8C118.56 8.4 119.053 8.2 119.64 8.2C120.2 8.2 120.68 8.4 121.08 8.8C121.507 9.2 121.72 9.69333 121.72 10.28C121.72 10.8133 121.507 11.2933 121.08 11.72C120.68 12.1467 120.2 12.36 119.64 12.36ZM127.536 34V21.44C127.536 20.5067 127.403 19.76 127.136 19.2C126.896 18.6133 126.616 18.16 126.296 17.84C125.976 17.4933 125.709 17.24 125.496 17.08L127.536 15.56L130.816 18.48C131.803 17.5467 132.723 16.8133 133.576 16.28C134.456 15.72 135.483 15.44 136.656 15.44C137.269 15.44 137.936 15.6 138.656 15.92C139.403 16.24 140.043 16.84 140.576 17.72C141.109 18.5733 141.376 19.8267 141.376 21.48V34H137.976V21.88C137.976 20.6267 137.749 19.6667 137.296 19C136.869 18.3067 136.069 17.96 134.896 17.96C133.749 17.96 132.429 18.7067 130.936 20.2V34H127.536ZM151.856 34.48C150.763 34.48 149.843 34.16 149.096 33.52C148.349 32.88 147.976 31.8 147.976 30.28V17.36L144.736 16.72V15.92H147.976V14.48L151.336 12.04V15.92H156.096V17.36H151.336V30.48C151.336 31.2267 151.483 31.8133 151.776 32.24C152.096 32.6667 152.683 32.88 153.536 32.88C153.909 32.88 154.323 32.8267 154.776 32.72C155.229 32.5867 155.669 32.44 156.096 32.28V33.4C155.509 33.6667 154.843 33.9067 154.096 34.12C153.376 34.36 152.629 34.48 151.856 34.48ZM166.66 34.48C165.167 34.48 163.807 34.1333 162.58 33.44C161.353 32.7467 160.38 31.7333 159.66 30.4C158.94 29.04 158.58 27.4 158.58 25.48C158.58 23.5867 158.873 22 159.46 20.72C160.073 19.44 160.86 18.4133 161.82 17.64C162.807 16.8667 163.86 16.3067 164.98 15.96C166.1 15.6133 167.18 15.44 168.22 15.44C169.74 15.44 171.113 15.7867 172.34 16.48C173.567 17.1733 174.54 18.1867 175.26 19.52C175.98 20.8533 176.34 22.4933 176.34 24.44C176.34 26.3333 176.033 27.92 175.42 29.2C174.807 30.48 174.007 31.5067 173.02 32.28C172.06 33.0533 171.02 33.6133 169.9 33.96C168.78 34.3067 167.7 34.48 166.66 34.48ZM167.42 33.12C168.353 33.12 169.153 32.8667 169.82 32.36C170.487 31.8533 171.02 31.2 171.42 30.4C171.847 29.5733 172.153 28.6933 172.34 27.76C172.553 26.8267 172.66 25.92 172.66 25.04C172.66 23.5733 172.473 22.24 172.1 21.04C171.753 19.8133 171.153 18.8267 170.3 18.08C169.473 17.3333 168.327 16.96 166.86 16.96C165.26 17.5733 164.087 18.64 163.34 20.16C162.593 21.68 162.22 23.3067 162.22 25.04C162.22 26.4533 162.393 27.7867 162.74 29.04C163.087 30.2667 163.633 31.2533 164.38 32C165.153 32.7467 166.167 33.12 167.42 33.12ZM180.7 34V21.44C180.7 20.5067 180.567 19.76 180.3 19.2C180.06 18.6133 179.78 18.16 179.46 17.84C179.14 17.4933 178.873 17.24 178.66 17.08L180.7 15.56L183.98 18.48C184.967 17.5467 185.887 16.8133 186.74 16.28C187.62 15.72 188.647 15.44 189.82 15.44C190.433 15.44 191.1 15.6 191.82 15.92C192.567 16.24 193.207 16.84 193.74 17.72C194.273 18.5733 194.54 19.8267 194.54 21.48V34H191.14V21.88C191.14 20.6267 190.913 19.6667 190.46 19C190.033 18.3067 189.233 17.96 188.06 17.96C186.913 17.96 185.593 18.7067 184.1 20.2V34H180.7Z" fill="white"/>
</g>
<path d="M30.536 38H0.464006C0.403072 38 0.342734 37.9878 0.286438 37.964C0.230143 37.9402 0.178988 37.9053 0.135901 37.8614C0.0928137 37.8174 0.0586374 37.7652 0.0353189 37.7078C0.0120005 37.6503 0 37.5888 0 37.5266V15.8135C0 11.6195 1.63303 7.59726 4.53985 4.63166C7.44666 1.66606 11.3891 0 15.5 0C19.6109 0 23.5533 1.66606 26.4601 4.63166C29.367 7.59726 31 11.6195 31 15.8135V37.5266C31 37.5888 30.988 37.6503 30.9647 37.7078C30.9414 37.7652 30.9072 37.8174 30.8641 37.8614C30.821 37.9053 30.7699 37.9402 30.7136 37.964C30.6573 37.9878 30.5969 38 30.536 38ZM9.30852 27.0742C7.69231 28.719 6.77218 30.9445 6.74544 33.2734H24.2514C24.2291 31.517 23.6996 29.8064 22.7292 28.3555C21.7588 26.9046 20.3906 25.7779 18.7958 25.1162C17.2009 24.4546 15.4502 24.2875 13.7628 24.6357C12.0753 24.984 10.5259 25.8322 9.30852 27.0742ZM28.126 34.2225V37.0524H30.068V34.2225H28.126ZM28.126 18.0347V33.275H30.068V18.0347H28.126ZM15.9616 3.14064C19.2258 3.27268 22.3138 4.6863 24.5806 7.08621C26.8473 9.48613 28.1176 12.6868 28.126 16.0196V17.0871H30.068V15.8135C30.0569 11.9569 28.5816 8.25477 25.9519 5.48435C23.3221 2.71393 19.7426 1.09076 15.9648 0.955635L15.9616 3.14064ZM3.79648 34.2169V37.0468H27.1972V34.2169H3.79648ZM3.79648 16.0139V33.2693H5.81506C5.83827 30.9385 6.6716 28.6918 8.16666 26.9293L4.29442 22.9997C4.20985 22.9108 4.16284 22.7917 4.1635 22.6678C4.16417 22.544 4.21246 22.4253 4.29799 22.3375C4.38351 22.2496 4.49944 22.1994 4.62082 22.1979C4.7422 22.1963 4.85934 22.2434 4.94703 22.329L8.80585 26.2498C9.21046 25.8552 9.64768 25.497 10.1126 25.179L6.17333 18.2142C6.11221 18.1054 6.09596 17.9763 6.12815 17.8553C6.16034 17.7343 6.23833 17.6313 6.34496 17.569C6.45159 17.5066 6.57813 17.49 6.69675 17.5229C6.81536 17.5557 6.91633 17.6353 6.97744 17.7441L10.9065 24.6911C11.3955 24.4219 11.9064 24.1962 12.4335 24.0165L9.535 12.9675C9.50937 12.8483 9.52989 12.7235 9.59227 12.6193C9.65465 12.5152 9.75407 12.4396 9.86976 12.4084C9.98546 12.3772 10.1085 12.3929 10.2131 12.4521C10.3178 12.5112 10.396 12.6094 10.4314 12.726L13.3275 23.7629C13.8889 23.6309 14.4606 23.5501 15.036 23.5214V8.82453C15.0409 8.70225 15.092 8.58666 15.1786 8.50192C15.2651 8.41719 15.3804 8.36987 15.5004 8.36987C15.6203 8.36987 15.7357 8.41719 15.8222 8.50192C15.9088 8.58666 15.9599 8.70225 15.9648 8.82453V23.5222C16.5212 23.5488 17.0744 23.6245 17.618 23.7484L20.5109 12.7236C20.5429 12.6031 20.6204 12.5004 20.7263 12.4379C20.8323 12.3755 20.9581 12.3583 21.0764 12.3902C21.1947 12.4221 21.2958 12.5005 21.3577 12.6082C21.4196 12.7159 21.4371 12.8442 21.4066 12.9651L18.5129 23.9947C19.0428 24.1717 19.5566 24.3952 20.0485 24.663L23.9642 17.7392C24.0262 17.6326 24.1269 17.5552 24.2444 17.5238C24.3619 17.4923 24.4869 17.5093 24.5922 17.5711C24.6976 17.6328 24.7749 17.7344 24.8074 17.8539C24.8399 17.9734 24.825 18.1011 24.7659 18.2094L20.8432 25.1452C21.3124 25.4626 21.7536 25.8212 22.1618 26.2168L25.9954 22.329C26.0831 22.2434 26.2002 22.1963 26.3216 22.1979C26.443 22.1994 26.5589 22.2496 26.6444 22.3375C26.7299 22.4253 26.7782 22.544 26.7789 22.6678C26.7796 22.7917 26.7325 22.9108 26.648 22.9997L22.8057 26.9035C24.3176 28.6702 25.1611 30.9298 25.1841 33.275H27.2027V16.0196C27.2027 12.8537 25.97 9.81747 23.7758 7.57885C21.5815 5.34023 18.6055 4.08259 15.5024 4.08259C12.3992 4.08259 9.4232 5.34023 7.22896 7.57885C5.03472 9.81747 3.80201 12.8537 3.80201 16.0196L3.79648 16.0139ZM2.87399 17.0871V16.0196C2.88339 12.6877 4.15371 9.48825 6.41983 7.089C8.68595 4.68974 11.7728 3.27608 15.036 3.14305V0.955635C11.2576 1.09014 7.67731 2.71299 5.04684 5.48343C2.41637 8.25387 0.940377 11.9564 0.928797 15.8135V17.0871H2.87399ZM2.87399 33.275V18.0347H0.928797V33.275H2.87399ZM2.87399 37.0524V34.2225H0.928797V37.0524H2.87399Z" fill="white"/>
<defs>
<filter id="filter0_b_50_72" x="33.7598" y="2.68018" width="164.779" height="35.8398" filterUnits="userSpaceOnUse" color-interpolation-filters="sRGB">
<feFlood flood-opacity="0" result="BackgroundImageFix"/>
<feGaussianBlur in="BackgroundImageFix" stdDeviation="2"/>
<feComposite in2="SourceAlpha" operator="in" result="effect1_backgroundBlur_50_72"/>
<feBlend mode="normal" in="SourceGraphic" in2="effect1_backgroundBlur_50_72" result="shape"/>
</filter>
</defs>
</svg>
