<svg width="65" height="78" viewBox="0 0 65 78" fill="none" xmlns="http://www.w3.org/2000/svg">
<path d="M63.7462 77.6598H0.968648C0.841443 77.6598 0.715483 77.6347 0.597962 77.5861C0.48044 77.5375 0.37365 77.4663 0.283703 77.3764C0.193756 77.2866 0.12241 77.1799 0.073731 77.0625C0.0250519 76.9452 0 76.8194 0 76.6923V32.3176C0 23.7465 3.40908 15.5264 9.47727 9.46562C15.5455 3.40489 23.7757 0 32.3574 0C40.9391 0 49.1694 3.40489 55.2376 9.46562C61.3057 15.5264 64.7148 23.7465 64.7148 32.3176V76.6923C64.7148 76.8194 64.6898 76.9452 64.6411 77.0625C64.5924 77.1799 64.5211 77.2866 64.4311 77.3764C64.3412 77.4663 64.2344 77.5375 64.1169 77.5861C63.9993 77.6347 63.8734 77.6598 63.7462 77.6598ZM19.4322 55.331C16.0583 58.6925 14.1374 63.2406 14.0816 68H50.6266C50.58 64.4106 49.4746 60.9147 47.4489 57.9495C45.4231 54.9844 42.5669 52.6817 39.2375 51.3295C35.9082 49.9774 32.2535 49.6358 28.7308 50.3475C25.208 51.0592 21.9736 52.7927 19.4322 55.331ZM58.7152 69.9399V75.7232H62.7693V69.9399H58.7152ZM58.7152 36.8571V68.0033H62.7693V36.8571H58.7152ZM33.3211 6.41845C40.1354 6.68831 46.5817 9.57728 51.3138 14.4819C56.0458 19.3866 58.6976 25.9276 58.7152 32.7389V34.9206H62.7693V32.3176C62.746 24.4361 59.6662 16.8701 54.1765 11.2082C48.6867 5.54641 41.2142 2.22916 33.3277 1.95301L33.3211 6.41845ZM7.92544 69.9284V75.7117H56.7762V69.9284H7.92544ZM7.92544 32.7273V67.9918H12.1394C12.1878 63.2284 13.9275 58.6369 17.0485 55.0348L8.96492 47.0039C8.78837 46.8223 8.69023 46.5788 8.69163 46.3257C8.69302 46.0726 8.79383 45.8302 8.97237 45.6506C9.15091 45.471 9.39292 45.3685 9.64631 45.3653C9.8997 45.3621 10.1442 45.4583 10.3273 45.6333L18.3829 53.6461C19.2275 52.8397 20.1402 52.1076 21.1109 51.4578L12.8873 37.224C12.7597 37.0017 12.7258 36.7379 12.793 36.4906C12.8602 36.2432 13.023 36.0327 13.2456 35.9053C13.4682 35.7779 13.7323 35.744 13.98 35.8111C14.2276 35.8782 14.4384 36.0408 14.5659 36.2632L22.7681 50.4608C23.789 49.9105 24.8555 49.4492 25.9558 49.082L19.905 26.5014C19.8515 26.2577 19.8944 26.0028 20.0246 25.7899C20.1548 25.577 20.3624 25.4225 20.6039 25.3588C20.8454 25.2951 21.1022 25.3271 21.3207 25.448C21.5392 25.5689 21.7025 25.7695 21.7764 26.0078L27.8222 48.5637C28.9941 48.294 30.1876 48.1288 31.3888 48.0701V18.0345C31.3991 17.7846 31.5057 17.5484 31.6864 17.3752C31.8671 17.202 32.1078 17.1053 32.3582 17.1053C32.6087 17.1053 32.8494 17.202 33.0301 17.3752C33.2107 17.5484 33.3174 17.7846 33.3277 18.0345V48.0717C34.4893 48.1262 35.644 48.2809 36.7789 48.5341L42.8181 26.0029C42.8849 25.7566 43.0465 25.5467 43.2677 25.4191C43.4889 25.2915 43.7517 25.2564 43.9986 25.3216C44.2456 25.3868 44.4567 25.5469 44.5858 25.7671C44.715 25.9872 44.7517 26.2494 44.6879 26.4965L38.647 49.0375C39.7532 49.3991 40.8258 49.856 41.8528 50.4032L50.027 36.2533C50.1565 36.0354 50.3666 35.8772 50.612 35.8129C50.8574 35.7486 51.1182 35.7833 51.3382 35.9096C51.5581 36.0358 51.7194 36.2435 51.7873 36.4876C51.8551 36.7318 51.824 36.9927 51.7007 37.2142L43.5117 51.3887C44.4912 52.0374 45.4123 52.7702 46.2644 53.5787L54.2673 45.6333C54.4503 45.4583 54.6949 45.3621 54.9483 45.3653C55.2017 45.3685 55.4437 45.471 55.6222 45.6506C55.8007 45.8302 55.9015 46.0726 55.9029 46.3257C55.9043 46.5788 55.8062 46.8223 55.6297 47.0039L47.6087 54.9821C50.7649 58.5926 52.5257 63.2105 52.5738 68.0033H56.7878V32.7389C56.7878 26.2688 54.2144 20.0637 49.6337 15.4887C45.0531 10.9137 38.8404 8.34349 32.3624 8.34349C25.8843 8.34349 19.6716 10.9137 15.091 15.4887C10.5103 20.0637 7.93697 26.2688 7.93697 32.7389L7.92544 32.7273ZM5.99968 34.9206V32.7389C6.0193 25.9296 8.67119 19.3909 13.4019 14.4876C18.1326 9.58433 24.5765 6.69525 31.3888 6.42338V1.95301C23.5011 2.22789 16.027 5.54448 10.5357 11.2064C5.04435 16.8683 1.96311 24.435 1.93893 32.3176V34.9206H5.99968ZM5.99968 68.0033V36.8571H1.93893V68.0033H5.99968ZM5.99968 75.7232V69.9399H1.93893V75.7232H5.99968Z" fill="white"/>
</svg>
